<svg xmlns="http://www.w3.org/2000/svg" width="256" height="256"><path fill="#ff6247" d="m163 4 2.21.633C186.091 10.853 203.208 22.15 219 37l1.79 1.594C235.885 52.618 246.822 73.237 252 93l.585 2.106c5.898 21.83 5.678 46.174-.585 67.894l-.633 2.21C246.393 181.907 238.209 196.715 227 210l-2.281 2.707C205.109 235.181 178.44 250.143 149 255l-3.02.555c-15.814 2.18-33.576 1.654-48.98-2.555l-3.844-.996C63.15 243.733 34.738 224.232 19 197l-1.252-2.164C1.556 166.39-5.964 131.456 2.409 99.13 9.111 74.97 19.633 55.19 37 37l1.59-1.781C52.594 20.11 73.246 9.175 93 4l2.106-.585C116.936-2.483 141.28-2.263 163 4m-46.812 68.688c-1.76 3.428-1.952 6.6-1.188 10.312 1.744 3.273 4.12 5.438 7.25 7.438 4.69.959 9.422.946 13.629-1.555 2.156-1.757 3.87-3.38 5.121-5.883.376-4.981.177-8.057-3-12-3.88-3.41-7.673-3.451-12.629-3.29-4.091.5-6.255 2.251-9.183 4.978M117 110c-2.303 3.338-2.258 6.362-2.275 10.342l-.029 3.893q0 2.1.003 4.199l-.013 4.318q-.01 4.523-.002 9.046c.006 3.858-.01 7.716-.034 11.574a1483 1483 0 0 0-.013 8.918q0 2.133-.015 4.266c-.013 1.99-.004 3.982.006 5.973l-.002 3.429c.42 3.411 1.36 5.285 3.374 8.042 4.608 3.263 10.624 2.603 16 2 3.197-1.272 5.424-2.848 7-6 .112-2.067.16-4.137.177-6.206l.039-3.955.022-4.296.013-2.182q.03-5.718.044-11.435c.011-3.935.046-7.869.085-11.803.027-3.027.035-6.055.038-9.082q.008-2.175.035-4.35c.025-2.032.021-4.065.017-6.097l.018-3.5c-.595-3.77-1.828-5.405-4.488-8.094-7.062-3.296-13.35-2.65-20 1"/></svg>