<svg xmlns="http://www.w3.org/2000/svg" width="150" height="150"><path fill="#fdfdfc" d="M112 20c11.665 10.892 20.895 21.275 27.13 36.067.838 1.95.838 1.95 1.94 3.77 3.894 7.152 3.674 14.837 3.671 22.771.009 2.427.081 4.847.157 7.273.193 13.218-3.271 24.344-12.355 34.314a88 88 0 0 1-3.356 2.93l-1.812 1.594C122.34 133.015 116.968 136.158 111 139q-1.76 1.078-3.5 2.188c-10.451 5.412-21.441 5.465-32.967 5.745-2.247.06-4.488.154-6.732.262-14.84.465-26.827-3.47-37.754-13.402-2.004-1.755-4.07-3.305-6.235-4.856C18.63 125.117 15.156 120.625 12 115l-1.875-3.062C2.279 98.153-1.342 81.19 2.941 65.566c1.247-2.629 1.247-2.629 2.637-5.066 1.665-2.928 2.73-5.892 3.86-9.062C15.788 34.855 27.517 23.358 43 15q2.407-1.342 4.813-2.687C66.723 1.799 96.149 6.036 112 20M68 60v1h8v-1z"/><path fill="#9a9487" d="M26 61a19095 19095 0 0 1 37.447-.104q8.693-.014 17.386-.047 8.385-.032 16.768-.039 3.204-.004 6.409-.021c2.983-.015 5.967-.017 8.95-.016l2.699-.022c6.113.02 6.113.02 8.341 2.249l1 5h18c-2.338 4.676-5.05 6.648-9.102 9.805-2.214 2.125-2.214 2.125-2.171 5.453L132 86l1.797.781c2.38 1.317 3.713 2.645 5.453 4.719l1.578 1.844C142 95 142 95 142 97h-25l-1 4c-6.754 10.989-16.822 18.124-29 22a54.2 54.2 0 0 1-11.312 1.125l-2.614.008C71 124 71 124 70 123l-3.312.25c-11.5.124-21.16-7.743-29-15.312C31 101.066 31 101.066 31 97H8c1.921-3.843 3.593-5.804 6.625-8.75l2.477-2.422L19 84c-1.337-2.903-2.847-5.21-4.937-7.625-.505-.59-1.009-1.18-1.528-1.79C10.888 72.773 10.888 72.773 8 71v-3h16z"/><path fill="#231e13" d="M8 68h16l.184 4.559.253 5.879.12 3.01.127 2.86.11 2.65C24.783 88.994 24.783 88.994 26 90q3.492.552 7 1l-2 1v2c1.975-.348 1.975-.348 4-1l1-2 3 4-1-4h12l1 2h2l1-2 4 1-4 4c1.2.969 2.41 1.924 3.625 2.875l2.04 1.617c5.822 3.76 11.773 3.857 18.507 4.164C81 105 81 105 83 107l1 3h2v-2h2v-2l-4-2 2.266-1.574 2.984-2.114c.975-.684 1.95-1.368 2.953-2.074 2.888-2.11 2.888-2.11 4.797-4.988 2-2.25 2-2.25 4.797-2.738l2.953.175 2.984.137L110 91l-1 2.938c-1.052 2.683-1.052 2.683-1 4.062l5 2-1-1a93 93 0 0 1-1-4l1 2c2.025.652 2.025.652 4 1v-2h2v-2l-6-2c3-1 3-1 6-1l6-1 1-22h18c-2.338 4.676-5.05 6.648-9.102 9.805-2.214 2.125-2.214 2.125-2.171 5.453L132 86l1.797.781c2.38 1.317 3.713 2.645 5.453 4.719l1.578 1.844C142 95 142 95 142 97h-25l-1 4c-6.754 10.989-16.822 18.124-29 22a54.2 54.2 0 0 1-11.312 1.125l-2.614.008C71 124 71 124 70 123l-3.312.25c-11.5.124-21.16-7.743-29-15.312C31 101.066 31 101.066 31 97H8c1.921-3.843 3.593-5.804 6.625-8.75l2.477-2.422L19 84c-1.337-2.903-2.847-5.21-4.937-7.625-.505-.59-1.009-1.18-1.528-1.79C10.888 72.773 10.888 72.773 8 71z"/><path fill="#080503" d="M100.332 33.281C108.532 38.564 114.723 45.166 119 54c.688 3.336.688 3.336 1 6h-2l-2-3-2 1 1 2c-2.565.163-5.12.281-7.687.375l-2.186.152c-2.187.06-4.004.014-6.127-.527-2.71-2.816-2.71-2.816-5-6-4.835-3.655-9.825-6.675-16-7v9h2l.875-2.937C82 50 82 50 84 49v8l6-5c-1.875 6.875-1.875 6.875-3 8a116 116 0 0 1-5.785.098l-3.545-.01-3.733-.026-3.744-.013Q65.597 60.03 61 60c-3-5.75-3-5.75-3-8l-4 4 4 4h-4l-1-2h-2l-1 2H28c1.792-6.791 4.408-11.703 9-17l1.676-2.031c16.053-17.875 41.76-19.137 61.656-7.688"/><path fill="#0d0904" d="M25 62h60l1 3 2 1h-2v8l4-1 2 4-7-2v-9c-2.934.267-2.934.267-6 1l-2 3-1-3-5 1 .5 3.25c.92 6.899-.332 9.81-3.5 15.75l-9-1 2.313.375C64 87 64 87 67 89q-8.73.037-17.462.055-2.973.008-5.945.02c-2.843.013-5.685.018-8.527.023l-2.702.015c-2.121 0-4.243-.05-6.364-.113l-1-1z"/><path fill="#716e65" d="M100.332 33.281C108.532 38.564 114.723 45.166 119 54c.688 3.336.688 3.336 1 6h-2l-2-3-2 1 1 2c-2.328.281-2.328.281-5 0-1.484-1.906-1.484-1.906-2.75-4.5-5.255-9.488-12.875-14.816-23.066-18.082C74.94 35.648 65.733 36.79 57 40c-1.33.35-2.661.689-4 1v3l-2.062.5C44.728 47.671 40.68 53.694 38 60l-2.75-.562c-3.007-.405-4.438-.263-7.25.562 1.792-6.791 4.408-11.703 9-17l1.676-2.031c16.053-17.875 41.76-19.137 61.656-7.688"/><path fill="#0b0806" d="M38 91h12l1 2h2l1-2 4 1-4 4c1.2.969 2.41 1.924 3.625 2.875l2.04 1.617c5.822 3.76 11.773 3.857 18.507 4.164C81 105 81 105 83 107l1 3h2v-2h2v-2l-4-2c1.121-.78 1.121-.78 2.266-1.574l2.984-2.114c.975-.684 1.95-1.368 2.953-2.074 2.888-2.11 2.888-2.11 4.797-4.988 2-2.25 2-2.25 4.797-2.738l2.953.175 2.984.137L110 91c-2.239 8.095-8.015 14.285-14.937 18.938-9.778 5.416-20.361 6.62-31.31 4.406C53.986 111.457 45.724 105.498 40 97c-1.375-3.437-1.375-3.437-2-6"/><path fill="#080402" d="M93 62h10v4h-6v7h2v-5h2v5l1.625-.562c2.995-.552 5.412-.044 8.375.562-.267-2.934-.267-2.934-1-6l-3-2c1.082-1.488 1.082-1.488 3-3 3.137-.293 3.137-.293 6.688-.187l3.574.082L123 62c.029 4.312.047 8.625.063 12.938l.025 3.732.01 3.545.016 3.285C123 88 123 88 122 89a85 85 0 0 1-4.979.114h-3.215l-3.497-.016-3.56-.005c-3.771-.005-7.541-.018-11.311-.03q-3.824-.009-7.647-.014Q78.396 89.032 69 89c4.45-3.469 7.85-5.26 13.625-4.562L86 85l2-.5c3.094-.774 5.898-.037 9 .5l-1-3a110 110 0 0 1 3-7l-6 1v-3h3c-.267-2.934-.267-2.934-1-6l-3-2z"/><path fill="#452918" d="M26 61h96v1l-2.555.148-3.32.227-3.305.21c-2.95.148-2.95.148-4.82 2.415l3 2c.188 3.125.188 3.125 0 6h-10v-5h-2v5h-2v-7h6v-4q-2.22.172-4.437.375c-.824.07-1.648.14-2.497.21L94 63l-1 2 3 2c.188 3.125.188 3.125 0 6h-3v3l6-1-.5 2.313c-.591 2.723-.591 2.723-.5 5.687l-1 3-1.828-.254-2.422-.308-2.39-.317C87.98 85 86.28 85.39 84 86a76 76 0 0 1-5-1h-2l-2 2c-5.864 1.921-9.946 2.081-16 1v-2h9l5-10-2-1c-.75-3.437-.75-3.437-1-7l2-2q3.012.43 6 1l1-1c2-.04 4-.043 6 0l1 9 5 1-1-2h-4l.035-1.898.028-2.477.035-2.46C86.145 64.95 86.145 64.95 85 63l-59-1z"/><path fill="#060402" d="M25 62h22v2l-10-1v9h-4v4h3v-3h4v-3l4-1 1 4 2.688-.062c2.934.055 5.467.393 8.312 1.062v2l-1.937.5c-2.224 1.282-2.224 1.282-2.551 3.414-.24 2.022-.38 4.054-.512 6.086l5 2v1q-6.381.037-12.762.055-2.173.008-4.345.02c-2.078.013-4.155.018-6.233.023l-3.793.016C26 89 26 89 25 88a115 115 0 0 1-.098-5.785l.01-3.545.026-3.733.013-3.744q.02-4.596.049-9.193"/><path fill="#090807" d="M125 68h18c-2.338 4.676-5.05 6.648-9.102 9.805-2.214 2.125-2.214 2.125-2.171 5.453L132 86l1.797.781c2.38 1.317 3.713 2.645 5.453 4.719l1.578 1.844C142 95 142 95 142 97h-25l-1 4c-3.175 4.924-6.552 9.524-12 12l-2-5 3 1v-3l3 2v-2l2-1-4-3 2-4 5 2-1-1a93 93 0 0 1-1-4l1 2c2.025.652 2.025.652 4 1v-2h2v-2l-6-2c3-1 3-1 6-1l6-1z"/><path fill="#11100f" d="M8 68h16l.184 4.559.253 5.879.12 3.01.127 2.86.11 2.65C24.783 88.994 24.783 88.994 26 90q3.492.552 7 1l-2 1v2c1.975-.348 1.975-.348 4-1l1-2c4 5.75 4 5.75 4 8l-4 2 2 2h2l2-2 5 6-2.375.375c-2.766.416-2.766.416-4.625 2.625a412 412 0 0 1-3.375-3.687l-1.898-2.075C33 102 33 102 31 97H8c1.921-3.843 3.593-5.804 6.625-8.75l2.477-2.422L19 84c-1.337-2.903-2.847-5.21-4.937-7.625-.505-.59-1.009-1.18-1.528-1.79C10.888 72.773 10.888 72.773 8 71z"/><path fill="#2a261f" d="m54 30 2 1c.625 3.063.625 3.063 1 6l2.902-.984c4.558-1.298 8.95-1.31 13.66-1.266l2.499-.023c4.709.015 8.513.465 12.939 2.273-3.337 1.112-3.774.826-7 0-8.894-.544-16.595-.09-25 3-1.33.35-2.661.689-4 1v3l-2.062.5C44.728 47.671 40.68 53.694 38 60l-2.75-.562c-3.007-.405-4.438-.263-7.25.562 2.914-11.044 9.941-20.234 19.441-26.648C51.72 30.866 51.72 30.866 54 30"/><path fill="#1e170f" d="m74.25 45.938 3.266.027L80 46l-2 1v9h2l.875-2.937C82 50 82 50 84 49v8l6-5c-1.875 6.875-1.875 6.875-3 8a116 116 0 0 1-5.785.098l-3.545-.01-3.733-.026-3.744-.013Q65.597 60.03 61 60c-3-5.727-3-5.727-3-8.187 1.705-3.09 4.501-4.325 7.777-5.391 2.856-.542 5.568-.516 8.473-.484"/><path fill="#3f392f" d="m73.813 25.813 2.08-.038c4.733-.013 8.612.738 13.107 2.225l-2 7h2l1-4 1 3-1 2 6-1-1 4 2 1c-3.204-.517-6.07-1.389-9.094-2.523-4.906-1.65-9.327-1.894-14.469-1.79l-2.42-.01C65.712 35.726 61.1 36.535 56 38l-1-8c6.561-2.902 11.558-4.18 18.813-4.187"/><path fill="#615948" d="M26 61h96v1l-2.555.148-3.32.227-3.305.21c-2.95.148-2.95.148-4.82 2.415l3 2c.188 3.125.188 3.125 0 6h-10v-5h-2v5h-2v-7h6v-4q-2.22.172-4.437.375c-.824.07-1.648.14-2.497.21L94 63l-1 2 3 2c.188 3.125.188 3.125 0 6l-10 1 .098-6.836c.047-2.213.047-2.213-1.098-4.164l-59-1z"/><path fill="#261f16" d="m55.074 65.086 2.272.133 2.342.156 2.376.133c5.805.361 5.805.361 6.936 1.492.04 2 .043 4 0 6h-2v-5h-2l.063 2.938C65 74 65 74 64 75l2 1v7c-4.417 1.104-8.474 1.15-13 1-1-1-1-1-1.062-4.062L52 77l4-1v-2l-1.625.625c-3.208.506-5.388-.471-8.375-1.625l1-3v2h3v-5l-4 1c1-2 1-2 2.808-2.63 2.184-.369 4.059-.415 6.266-.284"/><path fill="#070403" d="m101.797 90.512 2.953.175 2.984.137L110 91c-2.487 8.99-9.264 15.5-17.176 20.16-1.92.884-3.761 1.398-5.824 1.84l1-7-4-2 2.266-1.574 2.984-2.114 2.953-2.074c2.888-2.11 2.888-2.11 4.797-4.988 2-2.25 2-2.25 4.797-2.738"/><path fill="#bfb59a" d="M59 90h2l-2 8 6-5v8l3-6h2l1 8 2-8h2l2 6 1-6h2c1.625 2.5 1.625 2.5 3 5v-7h2a131 131 0 0 1 4 5l2 2-6 4 3 2v2h-2v2l-3 1-2-5-2.562-.113C67.51 105.253 60.924 103.653 53 96c1.313-2 1.313-2 3-4h3z"/><path fill="#f1f1f1" d="M141 65h2c2.288 4.577 1.185 10.975 1.188 16l.037 3.969.005 3.781.013 3.484C144 95 144 95 142 97l-1.645-2.082-2.167-2.73-2.145-2.708c-1.882-2.443-1.882-2.443-3.867-3.992C131 84 131 84 131 81.605c1.318-3.433 3.193-4.944 6-7.293 3.497-2.76 3.497-2.76 6-6.312h-18v-1h16z"/><path fill="#726f66" d="m105 100 1 2 2 1c2 1 2 1 3 3h-3v2h-3v3h-1l-.25 1.813c-.99 2.888-2.1 3.714-4.75 5.187-2.687.25-2.687.25-5 0l-1-1v2h-2l-1-5-2.941.98c-4.35 1.238-8.497 1.351-12.996 1.332l-2.303.05c-5.55.004-9.664-1.165-14.76-3.362 3-1 3-1 5.813-.062C72.827 116 83.677 114.405 93 110c4.515-2.768 8.407-6.107 12-10"/><path fill="#140f07" d="m63.592 90.886 3.412.016 3.682.01 3.876.025 3.89.014Q83.224 90.97 88 91l3 8c-2.622-1.049-3.794-1.65-5.25-4.125L85 93h-2l2 9h-2c-3-4.385-3-4.385-3-7h-2v9c-2.125-3.188-2.502-5.265-3-9h-2l-.375 3.937c-.21 2.215-.21 2.215-.625 4.063l-2 1v-9h-2l-.875 2.937C66 101 66 101 64 102v-8l-6 5c2.172-7.964 2.172-7.964 5.592-8.114"/><path fill="#ccbfa2" d="M78 47c5.625-.888 9.095 1.405 13.707 4.266 2.16 1.633 3.173 2.835 4.543 5.109 4.125 3.937 8.062 3.216 13.57 3.129 3.26-.517 4.272-.892 6.18-3.504l2 4h2l1-2v3H76v-1l11-1 2-6-6 5v-8l-3 6h-2z"/><path fill="#281308" d="M72 66q3.012.43 6 1l1-1c2-.04 4-.043 6 0 .195 6.055.195 6.055 0 8l-2 2c-2.125-.375-2.125-.375-4-1l4-1-4-1c-3.22 5.382-3.22 5.382-3.75 11.5L76 87c-1.33.345-2.665.675-4 1l-2.25.625c-3.76.513-7.001-.053-10.75-.625v-2h9l5-10-2-1c-.75-3.437-.75-3.437-1-7z"/><path fill="#090605" d="m116.688 61.813 3.574.082L123 62c.507 5.954-.49 11.032-4 16-3.25 1.063-3.25 1.063-6 1l-2-5h-6v-1h6c-.267-2.934-.267-2.934-1-6l-3-2c2.693-3.704 5.336-3.317 9.688-3.187"/><path fill="#b5ac99" d="m24 88 60 1c-2 2-2 2-4.123 2.243l-2.596-.013-2.824-.005-2.957-.037-2.957-.002C61.281 91.14 61.281 91.14 59 90l-1 2-4-1-1 3-3-1v-2H38l2 6c-1.708-1.634-2.935-2.87-4-5l-5 2v-2l-2.937-.875C25 90 25 90 24 88"/><path fill="#050402" d="m22 85 1.563 2.438C26.633 90.664 28.649 90.749 33 91l-2 1v2c1.975-.348 1.975-.348 4-1l1-2 2 5-1.5-.562c-2.802-.49-5.138-.11-7.93.304-5.497.552-11.05.328-16.57.258 0-3 0-3 1.426-4.79l1.886-1.835 1.864-1.852C19 86 19 86 22 85"/><path fill="#1b1812" d="m90 114 1 5h2l-1-4 2 1v2l2 1c-6.637 3.524-12.513 4.72-20 5v-7h-2v6h-1v-6l-2-1q3.906-.504 7.813-1c.737-.095 1.475-.19 2.236-.29 3.005-.38 5.918-.71 8.951-.71"/><path fill="#dcd9cc" d="m58 52 1.063 3.438c.73 1.955.73 1.955 1.937 3.562 3.589 1.062 3.589 1.062 7 1v1l-42 1-1 26h-1V68H8v-1h16v-7l3.375-.437c3.446-.347 3.446-.347 5.625-1.563l2 1c2.546.232 5.074.419 7.625.563l2.14.13q2.617.158 5.235.307l1-3 3 1v2l3-1-4-4c2.75-3 2.75-3 5-3"/><path fill="#59564c" d="m40 97 2.063 2.125C46.719 103.781 51.832 107.928 57 112l-1.937-.5c-1.871-.54-1.871-.54-3.063-.5l-2 6c-3.89-1.297-6.482-2.707-9-6 .25-2.25.25-2.25 1-4l4-1-4-4-5 3v-2l-2-2 2-2h3z"/><path fill="#0e0a05" d="M83 49c.826 2.892 1 4.887 1 8l6-5c-1.875 6.875-1.875 6.875-3 8a116 116 0 0 1-5.785.098l-3.545-.01-3.733-.026-3.744-.013Q65.597 60.03 61 60a101 101 0 0 1-3-6l1-2 1.98 2.48c3.958 3.302 6.375 3.12 11.333 2.833l2.244-.069c1.815-.058 3.63-.148 5.443-.244l.375-2.312C81 52 81 52 83 49"/><path fill="#8e8a7e" d="m54 30 2 1c.625 3.063.625 3.063 1 6l2.902-.984c4.558-1.298 8.95-1.31 13.66-1.266l2.499-.023c4.709.015 8.513.465 12.939 2.273-3.337 1.112-3.774.826-7 0-8.894-.544-16.595-.09-25 3-1.33.35-2.661.689-4 1v-3l-2-2 1 4-4 1-4-5a546 546 0 0 1 4.875-3.062l2.742-1.723z"/><path fill="#1b160d" d="M103 62h7l-2 3 3 2c.188 3.125.188 3.125 0 6h-10v-5h-2v5h-2v-7h6z"/><path fill="#bdb294" d="M59 90h2l-2 8 6-5v8l3-6h2v9c-5.604.862-8.62-1.345-13.047-4.395C55 98 55 98 53 95c1.313-1.5 1.313-1.5 3-3h3z"/><path fill="#888377" d="m82 26-2 1v5h-1v-5h-2v5l-2-3-1 3h-4v-5h-2v6h-3a257 257 0 0 0-7 2l-2-6c8.652-3.494 16.848-3.307 26-3"/><path fill="#312d27" d="M36.625 94.75C39 96 39 96 40 99l-4 2 2 2h2l2-2 5 6-2.375.375c-2.766.416-2.766.416-4.625 2.625q-1.69-1.904-3.375-3.812l-1.898-2.145C31.91 100.711 31 99.498 31 95c3-1 3-1 5.625-.25"/><path fill="#39362c" d="M34 47c2.962.613 4.38 1.254 7 3l-2 4h-3l2 1-2 5-1.75-.562c-2.475-.482-3.86-.116-6.25.562 2.89-9.595 2.89-9.595 6-13"/><path fill="#4c4337" d="m89 62 5 1-1 2 3 2c.188 3.125.188 3.125 0 6l-10 1v-8l2-1z"/><path fill="#1a150f" d="M50 109c1.441.595 2.878 1.202 4.313 1.813l2.425 1.019c2.265 1.17 3.68 2.18 5.262 4.168.188 2.688.188 2.688 0 5-3.642 1.214-4.332.667-7.687-.937l-2.45-1.153L50 118c.875-4.75.875-4.75 2-7h-2z"/><path fill="#322d26" d="m70.125 104.438 2.758.308L75 105l1 8h-4l-2-2-2-1-1 3-1-2-2-.437-2-.563-1-3h2v-2c2.623-1.312 4.23-.896 7.125-.562"/><path fill="#716d66" d="m89 28 14 7-1 3 2 1-2 3h-2v-2h-2v-3l-2 1-1-2-3 1-2-1v-4l-1 3h-2z"/><path fill="#a19c88" d="M37 63c2.875-.125 2.875-.125 6 0l2 2c-.375 2.125-.375 2.125-1 4l-4 1v3l-3 1c-1.209 2-1.209 2-2 4l-3-2 1-4h2z"/><path fill="#3b3832" d="m111 95 1 2c2.527.656 2.527.656 5 1-1.36 3.975-3.132 6.636-5.937 9.75l-2.09 2.36C107 112 107 112 104 113l-2-5 3 1v-3l3 2v-2l2-1-4-3 2-4 5 2-1-1a93 93 0 0 1-1-4"/><path fill="#1e120b" d="M51 78h1l1 5h12l2-4 2 7c-3.694 1.231-6.206.644-10 0 3.375.547 5.082 1.055 8 3q-2.656.039-5.312.063l-2.989.035C56 89 56 89 53 88v-2h-2c-1.097-3.29-.8-4.713 0-8"/><path fill="#0a0402" d="M65 68h2v5l4-1c1.25 2.563 1.25 2.563 2 6-1.026 2.65-2.385 4.625-4 7-2.762-2.762-2.579-5.207-3-9l-4-1 2-1c.658-3.03.658-3.03 1-6"/><path fill="#0d0906" d="M47 62h15l-1 2h-6l-1 2c-2.062.625-2.062.625-4 1v5l-5 1-.684-6.055C44.087 64.926 44.087 64.926 43 63l4 1z"/><path fill="#e4dac4" d="m116 56 2 4h2l1-2v3H76v-1l3.578-.148 4.672-.227c.777-.03 1.555-.062 2.355-.094C92.074 59.273 92.074 59.273 97 57l2 2c3.253.36 3.253.36 6.938.313l3.777.05c3.26-.069 3.26-.069 5.226-1.883z"/><path fill="#252017" d="M68 27h4v6l6 1v1l-2.781.148C68.57 35.553 62.386 36.084 56 38l-1-8h2l1 5h2l1-2h3l1-5 2 4z"/><path fill="#dcceb3" d="M83 93h2a131 131 0 0 1 4 5l2 2c-1.245.677-2.496 1.34-3.75 2l-2.11 1.125C83 104 83 104 79 104v-8l4 4z"/><path fill="#734f37" d="M79 72h4v2l-3 1 3 3c-.75 2.938-.75 2.938-2 6-2.181.954-3.642 1-6 1-1.017-2.655-1.13-3.692-.004-6.36l1.442-2.39 1.433-2.422z"/><path fill="#ded4b5" d="m58 52 1.063 3.438c.73 1.955.73 1.955 1.937 3.562 3.589 1.062 3.589 1.062 7 1v1H49l2-4 3 1v2l3-1-4-4c2.75-3 2.75-3 5-3"/><path fill="#774c33" d="M96.313 76.563 99 77l-1 2.813C96.85 82.92 96.85 82.92 97 86l-9-2c4.185-6.892 4.185-6.892 8.313-7.437"/><path fill="#9b9689" d="m24 88 25 2v1H38l2 6c-1.708-1.634-2.935-2.87-4-5l-5 2v-2l-2.937-.875C25 90 25 90 24 88"/><path fill="#c1b9a3" d="M82.063 65.938 85 66c.195 6.055.195 6.055 0 8l-2 2c-2.125-.375-2.125-.375-4-1l4-1-5-2a100 100 0 0 1 0-5c1-1 1-1 4.063-1.062"/><path fill="#130e09" d="M84 28c1.125 3.75 1.125 3.75 0 6h2l1-6h2l-2 7h2l1-4 1 3-1 2 6-1-1 4 2 1c-4.847-.782-9.377-2.398-14-4-.125-5.75-.125-5.75 1-8"/><path fill="#7c796f" d="m105 100 1 2 2 1c2 1 2 1 3 3h-3v2h-3v3l-1.812-2c-2.063-2.337-2.063-2.337-5.188-2z"/><path fill="#d6cbae" d="M87 90h3v2l5 2-1-4h5c-1.312 3.937-2.92 6.227-6 9-3-1-3-1-3.95-2.848l-.737-2.215-.762-2.222z"/><path fill="#7c7566" d="M54 65c1.858 3.135 2.201 5.375 2 9-3.815 1.467-6.29.433-10-1l1-3v2h3v-5l-4 1c1-2 1-2 2.875-2.625C51 65 51 65 54 65"/><path fill="#1b1710" d="m102 41 2 2h3v1h2v3l2 1-1 3c.394 2.638.394 2.638 1 5-3.927-3.77-7.444-7.885-11-12z"/><path fill="#c5bda9" d="M59 66q2.219-.04 4.438-.062l2.496-.036C68 66 68 66 69 67c.04 2 .043 4 0 6h-2v-5h-2v5h-2v-5h-2v5h-2z"/><path fill="#cdc3a6" d="m89 50 8 6c-1.687 2.063-1.687 2.063-4 4-2.75-.25-2.75-.25-5-1z"/><path fill="#8d887e" d="M53 41v3l-2.062.5C44.728 47.671 40.68 53.694 38 60l-2-1 2-4-5-2c2.49-1.245 3.41-.777 6 0l1.863-2.117 2.45-2.758 2.425-2.742C49.898 41 49.898 41 53 41"/><path fill="#a79f8d" d="M57 74h1v10h-5c-1-1-1-1-1.062-4.062L52 77h5z"/><path fill="#686357" d="M71 116h8c2 6.875 2 6.875 2 8h-5v-7h-2v6h-1v-6z"/><path fill="#231f18" d="M36.625 94.75C39 96 39 96 40 99c-2.354 1.43-3.48 2.087-6.25 1.625L32 100l-1-5c3-1 3-1 5.625-.25"/><path fill="#e8e8e7" d="M117 97h25v1h-24l1 3-5 5-2-1 1.938-2.312c2.204-2.57 2.204-2.57 3.062-5.688"/><path fill="#9a7154" d="M74 75h2l-.937 2.188c-1.143 2.72-1.143 2.72-1.438 5.374-.87 3.393-1.641 4.546-4.625 6.438-3.4.032-6.656-.413-10-1v-2h9l1.059-2.152 1.379-2.785 1.37-2.778C73 76 73 76 74 75"/><path fill="#545048" d="m97 110-1 3c.88 2.657.88 2.657 2 5h-4l-1-1v2h-2l-2-6c5.75-3 5.75-3 8-3"/><path fill="#676053" d="M54 66h5l1 8h-3v3l-4-1h3l-2-3a98 98 0 0 1 0-7"/><path fill="#8a867d" d="M40 97c3.26 3.17 6.222 6.4 9 10-2.884-1.293-4.872-2.66-7-5l-5 3v-2l-2-2 2-2h3z"/><path fill="#6b655c" d="M111 92c4.75.875 4.75.875 7 2v2h-2v2l-4-1 2 4-5-2c.875-4.75.875-4.75 2-7"/><path fill="#1a1610" d="m59 114 10 2v1h-5l-1 4h2l1-2v3h2l1-3 1 4h-8c-1.007-2.014-1.471-3.819-2-6z"/><path fill="#747064" d="m45 108 5 1v2h2l-2 6-5-2v-3l-1-2z"/><path fill="#afa891" d="M90 66a100 100 0 0 1 5 0c1 1 1 1 1.063 4.063L96 73h-6v-4h3l-3-1z"/><path fill="#9e9381" d="M61 77q2.514.428 5 1v5a88 88 0 0 1-5 1c-1-1-1-1-1.125-3.5C60 78 60 78 61 77"/><path fill="#605d51" d="m63 28 1 6-6 1-2-6c3-1 3-1 7-1"/><path fill="#18150f" d="m108 102 5 2c-2.101 3.982-4.37 6.35-8 9l-3-3 1-2h1l1-2 3 2v-2l2-1z"/><path fill="#b8ae9b" d="M72 66c2.625.375 2.625.375 5 1v3l-2 1 2 1c-1 1-1 1-3.562 1.063L71 73c-.625-2.375-.625-2.375-1-5z"/><path fill="#b9b19e" d="M105 66a100 100 0 0 1 5 0c1 1 1 1 1.063 4.063L111 73h-6v-4h4v-2l-4 1z"/><path fill="#413d37" d="M102 36c3.914 1.27 5.79 2.512 8 6l-8 2 1-5-3-1z"/><path fill="#e0d3b3" d="M59 90h2c-1.625 6.75-1.625 6.75-5 9l-3-4c1.313-1.5 1.313-1.5 3-3h3z"/><path fill="#89806e" d="M87.477 88.805q2.074.02 4.148.07l2.14.027c1.746.024 3.49.06 5.235.098v1h-5l1 4-5-2v-2l-8 1c2-2 2-2 5.477-2.195"/><path fill="#d2c8af" d="M85 49c2.063.438 2.063.438 4 1-.349 3.255-1.021 4.019-3.562 6.25L83 58c.875-7.875.875-7.875 2-9"/><path fill="#e2d4b1" d="M68 95h2v9l-5-1c1.875-5.75 1.875-5.75 3-8"/><path fill="#160f08" d="m99 91 3 1-2 2-1 2c-3.378 4.775-3.378 4.775-6.25 5.813L91 102v-3c1.636-1.37 3.307-2.7 5-4 1.763-2.126 1.763-2.126 3-4"/><path fill="#c0b8a9" d="M97 66h6v7h-2v-5h-2v5h-2z"/><path fill="#d8ccac" d="m61 49 3 1 1 8-7-6z"/><path fill="#d6cbaf" d="M66 47h4v9h-2c-1.562-2.812-1.562-2.812-3-6z"/><path fill="#948d80" d="M71 26v6h-1v-5h-2v6h-3c-2-3-2-3-3-6 3.073-.91 5.801-1.089 9-1"/><path fill="#4f4b45" d="m98 36 1 2-1 2h2l1 3c-5.076.615-7.83-1.383-12-4 3-1 3-1 6 0l1-2z"/><path fill="#8b8880" d="m89 116 1 4-8 2v-5c2.463-1.231 4.28-1.072 7-1"/><path fill="#6b6459" d="m85 104 3 2v2h-2v2l-3 1-.875-2.375c-.974-2.722-.974-2.722-3.125-4.625 3.75-1.125 3.75-1.125 6 0"/><path fill="#1f1b15" d="M115 50h2c2.034 3.73 3 5.67 3 10h-2l-.375-1.937L117 56l-2-1 1-2-4 1 1-2h2z"/><path fill="#d8cdaf" d="M71 46h6l-2 8h-2z"/><path fill="#2c2717" d="M83 91h5l3 8c-4.206-1.502-5.739-4.286-8-8"/><path fill="#30291e" d="m77 46 3 1h-2v8l-5 1v-2h2l.438-2.875C76 48 76 48 77 46"/><path fill="#45423a" d="M43 37a91 91 0 0 1 4 4v2h-4l-1-1c-2.054.41-2.054.41-4 1z"/><path fill="#706d65" d="m58 115 4 1v5l-3 1-3-2z"/><path fill="#555145" d="M111 53h5v4l-2 1 1 2c-1.937-.312-1.937-.312-4-1-1-3-1-3 0-6"/><path fill="#4a483e" d="m54 30 2 1c.75 2.938.75 2.938 1 6l-2 2-.875-2.937c-.767-3.17-.767-3.17-3.125-4.063z"/><path fill="#777269" d="m53 113 2 2 2-1-2 6-5-2z"/><path fill="#646052" d="M35 70c1.125 1.75 1.125 1.75 2 4-.875 2.25-.875 2.25-2 4l-3-2 1-4h2z"/><path fill="#4b4434" d="M50 67v5l-5 1-1-5c2.076-.553 3.844-1 6-1"/><path fill="#170f05" d="m58 52 7 6-1 2-4-1z"/><path fill="#827e74" d="m107 42 5 1-1 4-4 1 2-4-4 2z"/><path fill="#57554b" d="M45 35c2 .25 2 .25 4 1l1 3 2 1-4 1-4-5z"/><path fill="#110f07" d="M55 30h2l1 5h2l1-2v4l-5 1z"/><path fill="#110d0a" d="m101 100 3 1-6 7-1-3c1.938-2.687 1.938-2.687 4-5"/><path fill="#a87458" d="m93 77 3 1-3 2c-.224 2.925-.224 2.925 1 5l-6-1z"/><path fill="#78705e" d="M79 66h4v5l-4-1z"/><path fill="#dacfae" d="M64 93h1c.188 2.375.188 2.375 0 5l-3 2-2-1c1.152-2.468 2.048-4.048 4-6"/><path fill="#696860" d="M113 74c2 .313 2 .313 4 1l1 2-5 2c-.562-1.937-.562-1.937-1-4z"/><path fill="#8e8a7e" d="M41 41h2v2h2v2h-2v2l-4-2c0-2 0-2 2-4"/><path fill="#898476" d="M34 94c2.125.938 2.125.938 4 2v2l-4 1v-2h-2v-2z"/><path fill="#7b6f55" d="m93 54 4 2-4 4-3-1 3-1-1-3z"/><path fill="#948f81" d="M64 117h4v5l-5-1z"/><path fill="#dddcd9" d="m117 97 2 4-5 5-2-1 1.938-2.312c2.204-2.57 2.204-2.57 3.062-5.688"/><path fill="#ede0bd" d="M87 90h3c2.125 6.75 2.125 6.75 1 9z"/><path fill="#b5b0a2" d="m116 56 2 4h2l1-2v3c-5.75-.75-5.75-.75-8-3z"/><path fill="#a69b8e" d="m73 108 3 1-1 4h-3l-1-4z"/><path fill="#070200" d="m85 71 1 3 4-1 2 4-7-2z"/><path fill="#2c2417" d="M68 46h3l2 7h-3v-6z"/></svg>