<?xml version="1.0" encoding="UTF-8"?>
<svg version="1.1" xmlns="http://www.w3.org/2000/svg" width="512" height="512">
<path d="M0 0 C0.99456207 0.00215515 1.98912415 0.0043103 3.01382446 0.00653076 C17.49438666 0.05688983 31.6431425 0.40766644 45.875 3.3125 C46.88900879 3.51117676 47.90301758 3.70985352 48.94775391 3.91455078 C93.21913798 12.7688276 135.26195826 32.51857365 168.609375 63.23046875 C170.68392036 65.1369044 172.79765931 66.9801561 174.9375 68.8125 C182.18504033 75.15773612 188.61628362 81.98421885 194.62890625 89.5078125 C196.09186491 91.33460262 197.57796955 93.14316949 199.08984375 94.9296875 C226.10570277 126.93089836 243.24161403 167.37951838 250.875 208.3125 C251.03726074 209.12283691 251.19952148 209.93317383 251.36669922 210.76806641 C256.76686237 238.60482075 256.52473148 271.54488859 250.875 299.3125 C250.68164062 300.31055664 250.48828125 301.30861328 250.2890625 302.33691406 C241.49146282 346.85439762 221.77657145 387.26358285 191.875 421.3125 C191.12476563 422.17488281 190.37453125 423.03726562 189.6015625 423.92578125 C180.4423724 434.29186824 170.79031227 443.79765059 159.875 452.3125 C158.89144531 453.10140625 157.90789062 453.8903125 156.89453125 454.703125 C104.27130291 496.57287498 36.21717031 514.16021374 -30.2265625 506.66748047 C-58.6065042 503.19170257 -88.74371697 495.97169078 -113.46508789 481.13720703 C-120.33573474 479.00695967 -128.37923421 481.98976106 -135.08837891 483.84106445 C-136.04095581 484.09813171 -136.99353271 484.35519897 -137.97497559 484.62005615 C-141.10225116 485.46566439 -144.22687415 486.32066708 -147.3515625 487.17578125 C-149.54462902 487.77070856 -151.73785903 488.36503347 -153.9312439 488.95878601 C-159.6973904 490.52137352 -165.46134459 492.09190061 -171.22485352 493.66418457 C-177.04838693 495.25144932 -182.87385423 496.83158072 -188.69921875 498.41210938 C-196.28095902 500.46959228 -203.86205681 502.5293882 -211.44174767 504.59440899 C-215.16736002 505.60867327 -218.89388026 506.61958019 -222.62036896 507.63061905 C-224.97794071 508.27246339 -227.3337218 508.92049404 -229.68914795 509.57015991 C-231.03019749 509.93646944 -232.37127963 510.30265964 -233.71240234 510.66870117 C-234.83158051 510.97692307 -235.95075867 511.28514496 -237.10385132 511.60270691 C-243.08839067 513.00872334 -247.87553103 513.66218138 -253.25 510.4375 C-256.51596432 504.99422614 -255.63931312 499.71694228 -254.33920288 493.63885498 C-253.2262146 489.21797175 -251.96203744 484.84085099 -250.69921875 480.4609375 C-250.2337322 478.81220793 -249.7693807 477.16315752 -249.30609131 475.5138092 C-248.32594975 472.03226007 -247.33816217 468.55300413 -246.34494019 465.07516479 C-244.80379519 459.67118388 -243.2956991 454.25828737 -241.79125977 448.84399414 C-233.54553635 419.24212598 -233.54553635 419.24212598 -228.828125 404.97265625 C-222.26543343 387.14356408 -222.26543343 387.14356408 -224.87841797 369.02368164 C-226.84620379 365.45887551 -229.09730425 362.17371911 -231.46826172 358.8671875 C-234.4044306 354.33962028 -236.12782778 349.37218759 -237.9375 344.3125 C-238.30351318 343.30977051 -238.66952637 342.30704102 -239.04663086 341.27392578 C-261.50639511 278.45573977 -259.26574009 208.02049806 -231.125 147.3125 C-214.30292147 112.04660662 -214.30292147 112.04660662 -203.125 102.3125 C-199.91380315 101.42429662 -197.93465064 101.0328025 -194.76171875 102.12890625 C-191.89146973 102.6345219 -191.89146973 102.6345219 -189.484375 100.109375 C-188.59765465 99.10849604 -187.72827011 98.09204447 -186.875 97.0625 C-186.42898437 96.55847656 -185.98296875 96.05445312 -185.5234375 95.53515625 C-183.45426114 93.14619809 -182.13349692 91.33799075 -181.125 88.3125 C-181.455 87.6525 -181.785 86.9925 -182.125 86.3125 C-182.68012815 81.68036507 -182.7614242 78.33077873 -180.25 74.3125 C-176.89088527 71.15098025 -174.76968977 71.19708057 -170.1953125 71.1796875 C-168.125 71.3125 -168.125 71.3125 -166.21875 72.08984375 C-163.87628434 72.56348747 -163.87628434 72.56348747 -161.3984375 70.51171875 C-160.44195312 69.68285156 -159.48546875 68.85398437 -158.5 68 C-157.05753906 66.76830078 -157.05753906 66.76830078 -155.5859375 65.51171875 C-154.0632212 64.15094212 -152.56901834 62.75651834 -151.125 61.3125 C-151.310625 60.054375 -151.49625 58.79625 -151.6875 57.5 C-152.08297523 54.71665534 -152.17705334 53.46494192 -151.25 50.75 C-144.21095556 42.67580196 -134.34842223 37.52264642 -125.125 32.3125 C-124.3510791 31.87357422 -123.5771582 31.43464844 -122.77978516 30.98242188 C-99.68785663 18.02919965 -74.78129726 9.39183875 -48.875 4.0625 C-48.14442383 3.91127686 -47.41384766 3.76005371 -46.66113281 3.60424805 C-31.13501446 0.60634622 -15.77443511 -0.06154882 0 0 Z " fill="#2AB03F" transform="translate(257.125,-0.3125)"/>
<path d="M0 0 C0.99456207 0.00215515 1.98912415 0.0043103 3.01382446 0.00653076 C17.49438666 0.05688983 31.6431425 0.40766644 45.875 3.3125 C46.88900879 3.51117676 47.90301758 3.70985352 48.94775391 3.91455078 C93.21913798 12.7688276 135.26195826 32.51857365 168.609375 63.23046875 C170.68392036 65.1369044 172.79765931 66.9801561 174.9375 68.8125 C182.18504033 75.15773612 188.61628362 81.98421885 194.62890625 89.5078125 C196.09186491 91.33460262 197.57796955 93.14316949 199.08984375 94.9296875 C226.10570277 126.93089836 243.24161403 167.37951838 250.875 208.3125 C251.03726074 209.12283691 251.19952148 209.93317383 251.36669922 210.76806641 C256.76686237 238.60482075 256.52473148 271.54488859 250.875 299.3125 C250.68164062 300.31055664 250.48828125 301.30861328 250.2890625 302.33691406 C241.49146282 346.85439762 221.77657145 387.26358285 191.875 421.3125 C191.12476563 422.17488281 190.37453125 423.03726562 189.6015625 423.92578125 C180.4423724 434.29186824 170.79031227 443.79765059 159.875 452.3125 C158.89144531 453.10140625 157.90789062 453.8903125 156.89453125 454.703125 C104.27130291 496.57287498 36.21717031 514.16021374 -30.2265625 506.66748047 C-58.6065042 503.19170257 -88.74371697 495.97169078 -113.46508789 481.13720703 C-120.33573474 479.00695967 -128.37923421 481.98976106 -135.08837891 483.84106445 C-136.04095581 484.09813171 -136.99353271 484.35519897 -137.97497559 484.62005615 C-141.10225116 485.46566439 -144.22687415 486.32066708 -147.3515625 487.17578125 C-149.54462902 487.77070856 -151.73785903 488.36503347 -153.9312439 488.95878601 C-159.6973904 490.52137352 -165.46134459 492.09190061 -171.22485352 493.66418457 C-177.04838693 495.25144932 -182.87385423 496.83158072 -188.69921875 498.41210938 C-196.28095902 500.46959228 -203.86205681 502.5293882 -211.44174767 504.59440899 C-215.16736002 505.60867327 -218.89388026 506.61958019 -222.62036896 507.63061905 C-224.97794071 508.27246339 -227.3337218 508.92049404 -229.68914795 509.57015991 C-231.03019749 509.93646944 -232.37127963 510.30265964 -233.71240234 510.66870117 C-234.83158051 510.97692307 -235.95075867 511.28514496 -237.10385132 511.60270691 C-243.08839067 513.00872334 -247.87553103 513.66218138 -253.25 510.4375 C-256.51596432 504.99422614 -255.63931312 499.71694228 -254.33920288 493.63885498 C-253.2262146 489.21797175 -251.96203744 484.84085099 -250.69921875 480.4609375 C-250.2337322 478.81220793 -249.7693807 477.16315752 -249.30609131 475.5138092 C-248.32594975 472.03226007 -247.33816217 468.55300413 -246.34494019 465.07516479 C-244.80379519 459.67118388 -243.2956991 454.25828737 -241.79125977 448.84399414 C-233.54553635 419.24212598 -233.54553635 419.24212598 -228.828125 404.97265625 C-222.26543343 387.14356408 -222.26543343 387.14356408 -224.87841797 369.02368164 C-226.84620379 365.45887551 -229.09730425 362.17371911 -231.46826172 358.8671875 C-234.4044306 354.33962028 -236.12782778 349.37218759 -237.9375 344.3125 C-238.30351318 343.30977051 -238.66952637 342.30704102 -239.04663086 341.27392578 C-261.50639511 278.45573977 -259.26574009 208.02049806 -231.125 147.3125 C-214.32195503 112.08650866 -214.32195503 112.08650866 -203.125 102.3125 C-199.86998332 101.34292056 -197.80428427 101.15076565 -194.5 101.9375 C-191.44445611 103.70649909 -189.94636418 105.27689304 -188.125 108.3125 C-187.24298613 114.93996874 -189.61499184 118.57102587 -193.125 123.875 C-194.14460307 125.48089935 -195.16282142 127.08767867 -196.1796875 128.6953125 C-196.93523926 129.87528809 -196.93523926 129.87528809 -197.70605469 131.07910156 C-220.09532678 166.31947683 -232.59873814 207.41338339 -232.38574219 249.19335938 C-232.37503818 251.67863514 -232.38570266 254.16318363 -232.3984375 256.6484375 C-232.43527393 295.92940051 -222.58876008 337.44517051 -201.49194336 370.90234375 C-199.05206007 375.20427763 -199.58330714 379.22633762 -200.78125 383.83984375 C-201.43651824 385.94404565 -202.11083003 388.04234906 -202.796875 390.13671875 C-204.50574263 395.39871653 -205.95803868 400.73243076 -207.4375 406.0625 C-207.8871814 407.67692993 -207.8871814 407.67692993 -208.34594727 409.32397461 C-208.9650506 411.5472151 -209.58361581 413.77060551 -210.20166016 415.99414062 C-211.66934988 421.26882034 -213.14752533 426.54055452 -214.625 431.8125 C-215.20577746 433.88670523 -215.78650649 435.96092402 -216.3671875 438.03515625 C-217.55938822 442.29311111 -218.75216411 446.55090435 -219.9453125 450.80859375 C-223.35353202 462.97242749 -226.75126113 475.13905515 -230.125 487.3125 C-216.57447948 483.85508939 -203.05086205 480.35175676 -189.62353516 476.44067383 C-183.88302045 474.78103878 -178.11862856 473.28647596 -172.3125 471.875 C-164.74954806 470.03367089 -157.2784837 467.95108951 -149.8125 465.75 C-148.79349609 465.4509375 -147.77449219 465.151875 -146.72460938 464.84375 C-141.25000717 463.23691616 -141.25000717 463.23691616 -135.78125 461.61035156 C-133.79571386 461.01815811 -131.80428685 460.44581696 -129.8125 459.875 C-128.76449219 459.56691406 -127.71648437 459.25882812 -126.63671875 458.94140625 C-116.16592304 457.06621369 -109.49841965 458.91509394 -100.1875 463.875 C-57.25374427 485.54211673 -7.38375934 491.42823239 39.875 483.3125 C41.16277344 483.10753906 42.45054687 482.90257812 43.77734375 482.69140625 C93.16542582 473.90523916 142.59696609 447.18802216 174.875 408.3125 C175.65746094 407.44109375 176.43992187 406.5696875 177.24609375 405.671875 C197.92307845 382.47695788 212.45664301 354.23987041 222.04541016 324.84570312 C222.72268309 322.77760897 223.43966904 320.72255577 224.16796875 318.671875 C235.31038574 286.05575784 235.33578758 247.89934406 229.875 214.3125 C229.74641602 213.47380371 229.61783203 212.63510742 229.48535156 211.77099609 C223.69137329 174.83254173 206.66505772 138.11694389 182.875 109.3125 C182.07191406 108.30703125 181.26882813 107.3015625 180.44140625 106.265625 C168.63067871 91.6803356 155.13334278 78.25998243 139.875 67.3125 C138.93624023 66.6311499 138.93624023 66.6311499 137.97851562 65.93603516 C88.43190723 30.18113194 28.43094855 15.38599936 -32.125 23.3125 C-32.88377441 23.40370117 -33.64254883 23.49490234 -34.42431641 23.58886719 C-70.44793366 27.98105154 -104.52514042 42.6244261 -134.125 63.3125 C-138.17108511 66.00989007 -141.37635247 65.96231493 -146.125 65.3125 C-149.19318718 63.77840641 -150.64910348 62.73721519 -151.75 59.44140625 C-152.3399211 56.19069521 -152.32246152 53.89078016 -151.25 50.75 C-144.21095556 42.67580196 -134.34842223 37.52264642 -125.125 32.3125 C-124.3510791 31.87357422 -123.5771582 31.43464844 -122.77978516 30.98242188 C-99.68785663 18.02919965 -74.78129726 9.39183875 -48.875 4.0625 C-48.14442383 3.91127686 -47.41384766 3.76005371 -46.66113281 3.60424805 C-31.13501446 0.60634622 -15.77443511 -0.06154882 0 0 Z " fill="#010101" transform="translate(257.125,-0.3125)"/>
<path d="M0 0 C0.92264648 0.13390137 1.84529297 0.26780273 2.79589844 0.40576172 C34.94178477 5.26474967 67.61609344 18.96161288 94 38 C95.4540625 39.04414062 95.4540625 39.04414062 96.9375 40.109375 C116.51028414 54.48313835 134.80493021 71.20695867 149 91 C149.7734375 92.06347656 150.546875 93.12695312 151.34375 94.22265625 C173.01702091 124.76563906 187.16754406 158.98136335 193 196 C193.19480957 197.22710693 193.19480957 197.22710693 193.39355469 198.47900391 C196.90531851 221.86617052 195.45220081 245.71201275 192 269 C191.8767334 269.89170898 191.7534668 270.78341797 191.62646484 271.70214844 C184.49779711 321.95591592 154.58119783 374.70489331 115 407 C113.84975634 407.97336297 112.7000732 408.94738849 111.55078125 409.921875 C102.18404689 417.78546592 92.47331849 424.69088621 82 431 C81.30213379 431.4237793 80.60426758 431.84755859 79.88525391 432.28417969 C54.18920997 447.71485274 25.50578944 457.17977838 -4 462 C-4.69593262 462.11714355 -5.39186523 462.23428711 -6.10888672 462.35498047 C-51.72083839 469.68994904 -101.95256161 461.68783799 -142.51708984 439.81030273 C-152.00805354 434.87715099 -160.05886136 434.88550363 -170.125 438.0625 C-171.6821319 438.52267637 -173.23943374 438.98227799 -174.796875 439.44140625 C-175.62767578 439.69164551 -176.45847656 439.94188477 -177.31445312 440.19970703 C-182.31817945 441.69081748 -187.34756729 443.09132331 -192.375 444.5 C-193.43928223 444.79962646 -194.50356445 445.09925293 -195.60009766 445.40795898 C-203.0238464 447.48531912 -210.475888 449.39858708 -217.96435547 451.2265625 C-223.18924244 452.51347005 -228.34895404 453.94489886 -233.5 455.5 C-239.83712757 457.40975713 -246.20633685 459.13473847 -252.625 460.75 C-253.45451172 460.96076172 -254.28402344 461.17152344 -255.13867188 461.38867188 C-259.74878545 462.53276027 -264.2852022 463.4185504 -269 464 C-268.18871681 458.21349822 -266.67820865 452.6397028 -265.1875 447 C-264.91542725 445.96472168 -264.64335449 444.92944336 -264.36303711 443.86279297 C-262.68582118 437.5107414 -260.95007325 431.18015917 -259.1171875 424.87109375 C-257.6030152 419.6538753 -256.14997311 414.41938991 -254.6875 409.1875 C-254.24035645 407.59010986 -254.24035645 407.59010986 -253.78417969 405.96044922 C-252.2290734 400.40330423 -250.6782491 394.84499821 -249.1328125 389.28515625 C-248.52612235 387.10674836 -247.91935303 384.92836252 -247.3125 382.75 C-247.02133301 381.70102539 -246.73016602 380.65205078 -246.43017578 379.57128906 C-244.6608916 373.23431132 -242.785599 366.96350506 -240.62890625 360.74609375 C-238.52086722 351.54142642 -241.41852604 346.5065248 -245.9375 338.5625 C-252.2729314 326.95475688 -256.99580021 315.18116639 -261.12817383 302.63696289 C-261.6736033 300.98723348 -262.23364076 299.34218126 -262.81518555 297.70483398 C-264.96653232 291.59599545 -266.31024085 285.41070332 -267.5625 279.0625 C-267.77068359 278.06154297 -267.97886719 277.06058594 -268.19335938 276.02929688 C-271.32991529 260.32685239 -272.38599881 244.73441854 -272.3125 228.75 C-272.31034485 227.89904755 -272.3081897 227.04809509 -272.30596924 226.1713562 C-272.11971991 180.18445873 -257.63022125 136.97648647 -232.16162109 98.74487305 C-228.88662481 93.82549549 -227.33713078 91.07630119 -228 85 C-229.35885116 82.59916562 -229.35885116 82.59916562 -231 81 C-228.91634904 76.13047317 -225.24671835 72.50829149 -221.80078125 68.55859375 C-221.20652344 67.71425781 -220.61226562 66.86992188 -220 66 C-220.33 65.01 -220.66 64.02 -221 63 C-221.53094699 58.35203781 -221.64784823 55.03655716 -219.125 51 C-215.76588527 47.83848025 -213.64468977 47.88458057 -209.0703125 47.8671875 C-207 48 -207 48 -205.0859375 48.77734375 C-202.75756326 49.25296218 -202.75756326 49.25296218 -200.34375 47.19921875 C-199.4053125 46.37035156 -198.466875 45.54148438 -197.5 44.6875 C-191.62631579 39.54802632 -191.62631579 39.54802632 -188 38 C-187.59273682 38.48549316 -187.18547363 38.97098633 -186.76586914 39.47119141 C-184.05274067 41.82009373 -181.79485991 41.49862786 -178.32763672 41.37402344 C-174.61627945 40.77765262 -171.97004217 38.85705672 -169.0625 36.625 C-167.75921713 35.69617214 -166.45174299 34.77320349 -165.140625 33.85546875 C-164.46451172 33.38028809 -163.78839844 32.90510742 -163.09179688 32.41552734 C-144.58168754 19.88966204 -123.30342073 11.37585593 -102 5 C-100.9493335 4.68506592 -100.9493335 4.68506592 -99.87744141 4.36376953 C-88.12774058 0.93520625 -76.12922923 -0.60255533 -64 -2 C-62.87335938 -2.1340625 -61.74671875 -2.268125 -60.5859375 -2.40625 C-40.32687481 -4.37208897 -20.07353482 -2.96489529 0 0 Z M-73 19 C-73.72380859 19.1129541 -74.44761719 19.2259082 -75.19335938 19.34228516 C-105.7563485 24.34459735 -135.8647264 36.97240457 -161 55 C-161.58668457 55.41991211 -162.17336914 55.83982422 -162.77783203 56.27246094 C-170.06804286 61.55605928 -176.79114498 67.38017629 -183.34765625 73.53515625 C-185.45711064 75.49548868 -187.58945942 77.36054683 -189.8125 79.1875 C-193.638422 82.44729511 -196.79001129 86.14212366 -200 90 C-200.45648926 90.53351074 -200.91297852 91.06702148 -201.38330078 91.61669922 C-210.35862173 102.113261 -217.98446932 113.10922564 -225 125 C-225.56992676 125.95592041 -225.56992676 125.95592041 -226.15136719 126.93115234 C-236.74309499 144.91756569 -243.92956356 165.43383844 -248.125 185.8125 C-248.28395752 186.58231201 -248.44291504 187.35212402 -248.60668945 188.14526367 C-251.18677036 201.35815828 -252.3351212 214.32849165 -252.26074219 227.76391602 C-252.24998886 230.06488264 -252.26073455 232.36507182 -252.2734375 234.66601562 C-252.28254712 244.28410941 -251.54539007 253.48962898 -250 263 C-249.87431641 263.80058838 -249.74863281 264.60117676 -249.61914062 265.42602539 C-245.54250523 290.26877617 -237.4627248 314.63389044 -224.4609375 336.2578125 C-223.83046509 337.32249756 -223.83046509 337.32249756 -223.18725586 338.40869141 C-222.38019014 339.75921397 -221.55402024 341.09858401 -220.70532227 342.42333984 C-217.29081162 348.11045432 -218.09251234 352.36106777 -219.64135742 358.57177734 C-220.42760287 361.54019692 -221.26949395 364.4883163 -222.125 367.4375 C-222.7579163 369.65882459 -223.39072562 371.88017967 -224.0234375 374.1015625 C-224.34924805 375.23754883 -224.67505859 376.37353516 -225.01074219 377.54394531 C-226.60918103 383.12822474 -228.18030406 388.7200868 -229.75 394.3125 C-230.03117676 395.30628662 -230.31235352 396.30007324 -230.60205078 397.32397461 C-235.18538297 411.43952781 -235.18538297 411.43952781 -236 426 C-234.20636089 428.8100346 -232.98119065 430.50940468 -230 432 C-221.45239485 432.04954481 -213.12546886 429.4323753 -204.9375 427.25 C-203.54566771 426.88472977 -202.15373988 426.51982337 -200.76171875 426.15527344 C-192.35433034 423.94293906 -183.99015431 421.60790105 -175.66796875 419.09375 C-171.73061981 417.91967364 -167.78021087 416.81598126 -163.8125 415.75 C-162.64332031 415.43546875 -161.47414063 415.1209375 -160.26953125 414.796875 C-159.19058594 414.53390625 -158.11164063 414.2709375 -157 414 C-156.07445312 413.68804687 -155.14890625 413.37609375 -154.1953125 413.0546875 C-149.02709491 412.9662339 -145.4051006 415.77205451 -141.0625 418.375 C-124.65753357 427.74199509 -107.4593634 434.27174202 -89.06494141 438.52099609 C-87.18770089 438.95645908 -85.3179171 439.42375906 -83.44921875 439.89453125 C-31.56355872 452.27148658 25.87821571 441.30142785 71.46484375 414.43359375 C78.72163111 410.25765732 78.72163111 410.25765732 84 404 C83.87577332 401.76666318 83.87577332 401.76666318 83.375 399.4375 C83.24629314 396.56304678 83.41401387 394.75886875 85.19824219 392.44824219 C86.81129703 390.79641689 88.4803666 389.29518526 90.25 387.8125 C91.12857666 387.07181274 91.12857666 387.07181274 92.02490234 386.31616211 C93.765625 384.95703125 93.765625 384.95703125 97 383 C99.06347656 383.36279297 99.06347656 383.36279297 101 384 C107.13637267 384.67644513 107.13637267 384.67644513 112.5 382.125 C115.2999917 378.15834509 115.30434308 374.74417155 115 370 C114.79189697 369.36400879 114.58379395 368.72801758 114.36938477 368.07275391 C114 366 114 366 115.95703125 362.765625 C116.88611599 361.57564205 117.83937976 360.40425078 118.8125 359.25 C119.31152832 358.65453369 119.81055664 358.05906738 120.32470703 357.44555664 C122.74645127 354.77185007 124.23298681 353.19471162 127.78515625 352.29296875 C130.375 352.4375 130.375 352.4375 132.7109375 352.93359375 C135.13238212 353.20105836 135.13238212 353.20105836 137.4296875 351.62890625 C140.99069836 347.98671734 143.28411349 343.93426256 145.75 339.5 C146.53334717 338.1063623 146.53334717 338.1063623 147.33251953 336.68457031 C175.16519086 286.36282826 183.20073752 227.18129184 167.34423828 171.57446289 C159.44893906 145.12740771 147.22957648 120.61687167 130 99 C129.20464844 97.9996875 128.40929687 96.999375 127.58984375 95.96875 C116.03699069 81.75070745 102.92796783 68.65080615 88 58 C87.41573242 57.58202148 86.83146484 57.16404297 86.22949219 56.73339844 C40.35918661 24.30311729 -17.30345932 10.01709569 -73 19 Z " fill="#FBFBFB" transform="translate(296,23)"/>
<path d="M0 0 C5.3747438 3.88299504 8.37616943 7.67710936 10.9453125 13.74609375 C11.27435577 14.48323105 11.60339905 15.22036835 11.94241333 15.97984314 C12.9787415 18.31277445 13.98965256 20.65571907 15 23 C15.66736939 24.51127633 16.33629908 26.02186466 17.00683594 27.53173828 C18.66307843 31.27641663 20.28965517 35.03301071 21.90234375 38.79663086 C22.8892999 41.09581259 23.88593886 43.39065056 24.8828125 45.68554688 C25.52402562 47.17683059 26.16467216 48.66835808 26.8046875 50.16015625 C27.09737518 50.83111832 27.39006287 51.50208038 27.69161987 52.19337463 C31.07488655 60.15090082 33.96153707 68.86646276 31.23046875 77.40625 C28.39520415 83.73800698 24.17311082 88.48043755 19.40234375 93.45703125 C17.11762586 95.87548872 15.04090191 98.37463658 13 101 C17.11712548 112.54492918 26.26914827 121.95544654 34.65869141 130.60742188 C35.78537416 131.7771704 36.88615063 132.97179438 37.98046875 134.171875 C49.68851162 146.68113051 72.54712474 165.36818553 89.97753906 167.33618164 C93.05031677 167.29169562 93.05031677 167.29169562 94.9152832 165.27514648 C95.45499756 164.48180908 95.99471191 163.68847168 96.55078125 162.87109375 C97.16759766 162.00033203 97.78441406 161.12957031 98.41992188 160.23242188 C99.04447266 159.31009766 99.66902344 158.38777344 100.3125 157.4375 C106.14899475 148.91290357 111.96695943 141.54484231 122 138 C134.40247592 135.9579979 146.10970061 143.90631015 156.75 149.3125 C159.03099277 150.46795585 161.31224239 151.62290481 163.59375 152.77734375 C165.23537109 153.60854736 165.23537109 153.60854736 166.91015625 154.45654297 C169.60186759 155.80112254 172.30601366 157.10410871 175.03125 158.37890625 C184.1626076 162.67146825 190.37092685 166.35024782 194.37817383 175.99487305 C195.51712771 179.66751861 195.48539119 183.3072225 195.4375 187.125 C195.43137695 187.95813721 195.42525391 188.79127441 195.41894531 189.6496582 C195.236952 196.91469117 193.78491233 203.26979521 191 210 C190.71125 210.7321875 190.4225 211.464375 190.125 212.21875 C184.22095294 225.50285588 172.81788499 234.42079866 159.6953125 239.97265625 C129.22584973 251.58637902 96.55058399 243.52291696 67.875 230.6875 C64.56445288 229.1628165 61.27777091 227.5938087 58 226 C57.21415527 225.62004883 56.42831055 225.24009766 55.61865234 224.84863281 C31.63020634 213.1103462 10.22672049 197.44275635 -9 179 C-9.82371094 178.21753906 -10.64742187 177.43507813 -11.49609375 176.62890625 C-16.27176198 171.98566556 -20.53735712 167.06432232 -24.6953125 161.86328125 C-27.01325149 158.98353671 -29.40808556 156.18271079 -31.8125 153.375 C-55.01306422 125.49835306 -74.89368726 91.78379877 -71.6875 54.3515625 C-69.55648606 37.11318189 -62.90928928 19.20521052 -49.32421875 7.7421875 C-36.10469955 -2.16788084 -15.84658722 -8.9347779 0 0 Z " fill="#010201" transform="translate(196,136)"/>
<path d="M0 0 C0.76086914 0.25539551 1.52173828 0.51079102 2.30566406 0.77392578 C24.33277471 8.28888024 44.85638837 19.40513885 63 34 C63.99773437 34.7940625 64.99546875 35.588125 66.0234375 36.40625 C80.24680513 47.95373722 93.35786433 61.06573226 104 76 C104.47743652 76.66547852 104.95487305 77.33095703 105.44677734 78.01660156 C138.71556078 124.87617499 151.4772368 181.44006777 142.33984375 238.1796875 C137.71538259 265.31890821 128.09247951 291.68059686 113.625 315.125 C113.22047607 315.78209961 112.81595215 316.43919922 112.39916992 317.11621094 C109.80878247 321.15684863 107.64209367 324.39028608 102.81640625 325.50390625 C98.26459259 325.62223763 96.5596691 325.46829455 92.9375 322.4375 C90.62989044 318.343354 90.47516682 316.64784702 91 312 C92.37973082 308.85886342 94.17217777 306.02278151 96 303.125 C97.02297768 301.42211442 98.04114379 299.71632992 99.0546875 298.0078125 C99.55838867 297.15993164 100.06208984 296.31205078 100.58105469 295.43847656 C111.55549564 276.57875249 119.05064228 254.59274299 122 233 C122.16411377 232.01153076 122.32822754 231.02306152 122.49731445 230.00463867 C123.93769661 220.9624173 124.3632297 212.07374605 124.3125 202.9375 C124.30876877 201.85576004 124.30876877 201.85576004 124.30496216 200.75216675 C124.03748052 150.36348875 103.82429148 104.83698141 70 68 C69.23171875 67.15953125 68.4634375 66.3190625 67.671875 65.453125 C48.23273383 45.150022 22.85318744 31.25094899 -3 21 C-3.65790527 20.73703125 -4.31581055 20.4740625 -4.99365234 20.203125 C-48.56510586 3.17655972 -101.77952166 6.42342492 -144.32714844 24.79589844 C-188.50435628 44.69743197 -223.69826798 77.81923862 -244 122 C-244.54398438 123.18335938 -245.08796875 124.36671875 -245.6484375 125.5859375 C-250.9808603 137.63125804 -255.27520791 150.09957193 -258 163 C-258.27972656 164.24523437 -258.55945313 165.49046875 -258.84765625 166.7734375 C-261.03299115 177.57870449 -261.26978956 188.32884703 -261.25 199.3125 C-261.24922455 200.03334778 -261.2484491 200.75419556 -261.24765015 201.49688721 C-261.20865669 214.01859463 -261.10476646 226.66696675 -258.375 238.9375 C-258.20315186 239.7219751 -258.03130371 240.5064502 -257.85424805 241.31469727 C-251.73471169 268.17397502 -241.3068956 293.03965661 -226 316 C-225.07070764 322.33413305 -226.58587348 328.03504333 -228.5625 334 C-229.11301445 335.74535823 -229.6610708 337.49149315 -230.20703125 339.23828125 C-230.49787598 340.16205566 -230.7887207 341.08583008 -231.08837891 342.03759766 C-232.73670017 347.39397962 -234.24136084 352.79043026 -235.75 358.1875 C-236.04334229 359.22583984 -236.33668457 360.26417969 -236.63891602 361.33398438 C-238.27820308 367.19243565 -239.7392257 373.04840369 -241 379 C-227.9531231 375.68490049 -214.97643973 372.19714684 -202.07226562 368.36108398 C-199.38443282 367.56362297 -196.69283999 366.78035043 -194 366 C-193.30245605 365.78666016 -192.60491211 365.57332031 -191.88623047 365.35351562 C-184.18813911 363.15901096 -177.68848868 362.7990852 -170.44140625 366.5625 C-168.47165537 367.69085565 -166.51232553 368.83755199 -164.5625 370 C-162.43587951 371.20556976 -160.30562344 372.40474773 -158.171875 373.59765625 C-157.12580078 374.18305176 -156.07972656 374.76844727 -155.00195312 375.37158203 C-113.17367213 398.06145144 -59.56582785 401.25100494 -14.25390625 388.1328125 C-3.09608678 384.66437935 7.62250707 380.36443765 18 375 C18.64291992 374.66967773 19.28583984 374.33935547 19.94824219 373.99902344 C25.9668297 370.89482231 31.93717493 367.78586516 37.5625 364 C41.2176506 361.87336692 42.86920904 361.26563716 47 362 C50.49406769 363.66762322 51.82670681 364.74006022 54 368 C54.66856767 374.90853257 54.66856767 374.90853257 52.51171875 378.4296875 C49.19336757 381.82544968 45.56063005 383.9414626 41.4375 386.25 C40.59469482 386.72671143 39.75188965 387.20342285 38.88354492 387.69458008 C15.56438185 400.71038072 -8.69222905 409.27873976 -35 414 C-35.71575195 414.13132324 -36.43150391 414.26264648 -37.16894531 414.39794922 C-82.32637011 422.27784248 -135.66045603 413.30024424 -174.28271484 388.22753906 C-178.50504389 385.65391148 -181.14708707 384.62611595 -186.08984375 385.5625 C-187.73585174 386.00871368 -189.37376864 386.48636537 -191 387 C-192.90652344 387.53367187 -192.90652344 387.53367187 -194.8515625 388.078125 C-196.09679687 388.46484375 -197.34203125 388.8515625 -198.625 389.25 C-206.69434643 391.70079293 -214.84214708 393.75269169 -223.03222656 395.75756836 C-228.58170492 397.12283904 -234.093243 398.56387901 -239.58349609 400.15063477 C-254.86283803 404.56383485 -254.86283803 404.56383485 -260 404 C-262.98653297 402.23246008 -264.45952276 401.08095449 -266 398 C-266.26290942 392.41915008 -265.69012802 387.81425277 -264.25 382.375 C-264.06735596 381.67753662 -263.88471191 380.98007324 -263.6965332 380.26147461 C-262.2738456 374.87729044 -260.7557775 369.51990027 -259.203125 364.171875 C-257.57688144 358.56276124 -256.01123672 352.93651855 -254.4375 347.3125 C-254.14447998 346.26715088 -253.85145996 345.22180176 -253.54956055 344.14477539 C-252.97681894 342.09843921 -252.40798653 340.05100446 -251.84326172 338.00244141 C-251.27890379 335.99303961 -250.69173975 333.98991039 -250.08251953 331.99365234 C-248.02539868 325.08401588 -247.42785045 321.10301728 -250.78515625 314.4765625 C-251.53706956 313.18847755 -252.29660264 311.9048194 -253.0625 310.625 C-253.88803011 309.19421305 -254.71088321 307.76187867 -255.53125 306.328125 C-255.94632813 305.60431641 -256.36140625 304.88050781 -256.7890625 304.13476562 C-283.44438691 257.14400824 -289.49404778 198.49334649 -275.54003906 146.49658203 C-271.03236235 130.61640127 -264.84500245 115.51132227 -257 101 C-256.68063477 100.4013916 -256.36126953 99.8027832 -256.03222656 99.18603516 C-248.32820853 84.83779041 -238.73957442 72.19264386 -228 60 C-227.56123535 59.49807129 -227.1224707 58.99614258 -226.67041016 58.47900391 C-221.44357979 52.51803524 -216.08275223 47.07250492 -210 42 C-209.05640625 41.16855469 -208.1128125 40.33710937 -207.140625 39.48046875 C-151.05861205 -9.70478358 -70.10874092 -23.76454663 0 0 Z " fill="#010202" transform="translate(326,51)"/>
<path d="M0 0 C0.69359619 -0.05236816 1.38719238 -0.10473633 2.10180664 -0.15869141 C4.91072136 -0.17692453 7.16727055 0.07341265 9.25097656 2.06542969 C13.6096628 8.58411055 16.32044728 16.29783517 19.375 23.5 C19.93560816 24.80754468 20.49680289 26.11483803 21.05859375 27.421875 C22.15514851 29.9764949 23.24315999 32.53448923 24.32421875 35.09570312 C25.33215622 37.47083034 26.35482357 39.83977924 27.39453125 42.20117188 C28.08095703 43.77995117 28.08095703 43.77995117 28.78125 45.390625 C29.18666016 46.30875977 29.59207031 47.22689453 30.00976562 48.17285156 C30.93651298 50.9332198 31.22040515 52.86194599 30.875 55.75 C29.06181427 58.0414208 27.30476421 60.01468062 25.25 62.0625 C24.14449794 63.20970381 23.0416113 64.35943395 21.94140625 65.51171875 C21.41047363 66.06520996 20.87954102 66.61870117 20.33251953 67.18896484 C14.28712323 73.66371593 11.35076645 78.68711541 11.48046875 87.66015625 C13.36718024 102.43628287 27.51712805 115.86522702 37.45849609 126.26611328 C38.40169288 127.25417775 39.3395589 128.24735893 40.27197266 129.24560547 C55.60137263 145.63073455 82.78599627 168.85202051 106.05859375 171.05078125 C116.40878545 171.11902012 116.40878545 171.11902012 124.9765625 165.74609375 C130.05162037 160.31351462 134.47631037 154.4279722 138.83203125 148.4140625 C142.58349347 143.52209839 142.58349347 143.52209839 144.875 141.75 C148.37526954 142.15907631 151.2276054 143.23180738 154.37402344 144.77539062 C155.23131042 145.19252319 156.08859741 145.60965576 156.97186279 146.03942871 C158.33930634 146.71600525 158.33930634 146.71600525 159.734375 147.40625 C160.67935852 147.86858032 161.62434204 148.33091064 162.59796143 148.80725098 C164.58959522 149.78299881 166.57986357 150.76153802 168.56884766 151.74267578 C171.62494654 153.24997363 174.68510767 154.74874952 177.74609375 156.24609375 C179.67992955 157.19481927 181.61353159 158.14402148 183.546875 159.09375 C184.46660095 159.54480103 185.3863269 159.99585205 186.33392334 160.46057129 C187.17860168 160.87770386 188.02328003 161.29483643 188.89355469 161.72460938 C189.64014343 162.0924353 190.38673218 162.46026123 191.15594482 162.8392334 C192.875 163.75 192.875 163.75 193.875 164.75 C194.82607161 176.83328681 193.63695686 185.65294791 185.625 195.0625 C176.40909705 204.66992824 165.71589157 208.57854649 152.45703125 208.91796875 C143.40270012 209.00477559 134.73704131 208.80873857 125.875 206.75 C124.75480469 206.50507813 123.63460937 206.26015625 122.48046875 206.0078125 C89.79231669 198.14037654 57.75542057 179.01664285 32.875 156.75 C32.32183105 156.25854492 31.76866211 155.76708984 31.19873047 155.26074219 C23.96261832 148.80696852 17.13698013 142.17122274 10.875 134.75 C10.39595215 134.1832959 9.9169043 133.6165918 9.42333984 133.03271484 C-11.73450746 107.86864793 -34.95862167 77.3583266 -33.30859375 42.82324219 C-31.9794293 27.81358192 -25.97256845 15.16062611 -15.125 4.75 C-14.60550781 4.24984375 -14.08601563 3.7496875 -13.55078125 3.234375 C-9.57329012 0.26952597 -4.80817297 0.22137573 0 0 Z " fill="#FCFCFC" transform="translate(177.125,152.25)"/>
<path d="M0 0 C2.69105198 2.17574416 4.45532928 3.91065856 6 7 C6.12243863 11.53022942 5.81830145 14.98332245 2.9375 18.5625 C-0.86901165 20.42526102 -3.83770536 20.71473746 -8 20 C-12.56944444 17.86111111 -12.56944444 17.86111111 -14 15 C-14.55512815 10.36786507 -14.6364242 7.01827873 -12.125 3 C-8.49799372 -0.41365296 -4.84659926 -0.85418991 0 0 Z " fill="#020202" transform="translate(89,71)"/>
<path d="M0 0 C2.92259352 1.32285812 3.83656259 2.4038751 6 5 C6.80265195 8.61910032 6.39041248 11.8587943 5.1875 15.375 C3.48951558 17.69855762 1.74965859 18.86663377 -1.0859375 19.37109375 C-5.33203313 19.494274 -7.40730178 19.40748002 -11 16.9375 C-13.39441358 13.42070506 -14 11.24773336 -14 7 C-11.16394032 0.61886571 -6.77598917 -1.21227678 0 0 Z " fill="#020403" transform="translate(405,388)"/>
</svg>
