<?xml version="1.0" encoding="UTF-8"?>
<svg version="1.1" xmlns="http://www.w3.org/2000/svg" width="150" height="150">
<path d="M0 0 C11.66457434 10.89245122 20.89496967 21.27454168 27.12939453 36.06665039 C27.96771754 38.01774005 27.96771754 38.01774005 29.06982422 39.83764648 C32.96428034 46.98910968 32.74437847 54.6742818 32.74121094 62.6081543 C32.74990264 65.03531257 32.82248293 67.45499858 32.8984375 69.88085938 C33.09149322 83.09890345 29.62680021 94.22548105 20.54296875 104.1953125 C19.44927225 105.19956408 18.33080705 106.17761293 17.1875 107.125 C16.58929443 107.65085693 15.99108887 108.17671387 15.37475586 108.71850586 C10.33993575 113.01541245 4.96810351 116.15804595 -1 119 C-2.17289242 119.71910952 -3.34031697 120.44727679 -4.5 121.1875 C-14.95129947 126.59978008 -25.94127657 126.65307236 -37.46728516 126.93261719 C-39.7136909 126.99238275 -41.95475195 127.08715859 -44.19921875 127.1953125 C-59.03841608 127.6604911 -71.02617813 123.7246317 -81.953125 113.79296875 C-83.95681077 112.03783179 -86.02299301 110.48764504 -88.1875 108.9375 C-93.3708952 105.11601648 -96.84488978 100.62432691 -100 95 C-100.61875 93.989375 -101.2375 92.97875 -101.875 91.9375 C-109.72131932 78.15342553 -113.34225713 61.19022414 -109.05859375 45.56640625 C-107.8125 42.9375 -107.8125 42.9375 -106.421875 40.5 C-104.75671462 37.57224549 -103.69286566 34.60839587 -102.5625 31.4375 C-96.21176057 14.8550137 -84.48343 3.35716515 -69 -5 C-67.39536511 -5.89499438 -65.79121325 -6.79085521 -64.1875 -7.6875 C-45.27650093 -18.20084372 -15.85146593 -13.96438666 0 0 Z M-44 40 C-44 40.33 -44 40.66 -44 41 C-41.36 41 -38.72 41 -36 41 C-36 40.67 -36 40.34 -36 40 C-38.64 40 -41.28 40 -44 40 Z " fill="#FDFDFC" transform="translate(112,20)"/>
<path d="M0 0 C12.48228829 -0.0462645 24.96455632 -0.08183918 37.44691277 -0.10362434 C43.24247126 -0.11407815 49.03797127 -0.1282664 54.83349609 -0.15087891 C60.42259423 -0.17255044 66.01163596 -0.18455658 71.60077286 -0.18975449 C73.73710137 -0.1934605 75.87342668 -0.20069701 78.00973129 -0.21146011 C80.99337272 -0.22589944 83.97677869 -0.22798112 86.96044922 -0.22705078 C87.85092957 -0.23424133 88.74140991 -0.24143188 89.65887451 -0.24884033 C95.77189568 -0.22810432 95.77189568 -0.22810432 98 2 C98.495 4.475 98.495 4.475 99 7 C104.94 7 110.88 7 117 7 C114.66223961 11.67552077 111.94992121 13.64785319 107.8984375 16.8046875 C105.68404747 18.93012008 105.68404747 18.93012008 105.7265625 22.2578125 C105.81679687 23.16273437 105.90703125 24.06765625 106 25 C106.88945312 25.38671875 106.88945312 25.38671875 107.796875 25.78125 C110.17660965 27.09769895 111.50978792 28.42580782 113.25 30.5 C114.03117187 31.41265625 114.03117187 31.41265625 114.828125 32.34375 C116 34 116 34 116 36 C107.75 36 99.5 36 91 36 C90.67 37.32 90.34 38.64 90 40 C83.24556278 50.98887034 73.17841069 58.12353867 61 62 C57.18995347 62.78167406 53.57349808 63.13679362 49.6875 63.125 C48.39392578 63.12886719 48.39392578 63.12886719 47.07421875 63.1328125 C45 63 45 63 44 62 C42.906875 62.0825 41.81375 62.165 40.6875 62.25 C29.18771969 62.37387555 19.52761535 54.50726655 11.6875 46.9375 C5 40.0660609 5 40.0660609 5 36 C-2.59 36 -10.18 36 -18 36 C-16.07859132 32.15718264 -14.4073184 30.19568073 -11.375 27.25 C-10.55773437 26.45078125 -9.74046875 25.6515625 -8.8984375 24.828125 C-8.27195312 24.22484375 -7.64546875 23.6215625 -7 23 C-8.33657024 20.09663689 -9.84722571 17.7897189 -11.9375 15.375 C-12.44152344 14.78460938 -12.94554687 14.19421875 -13.46484375 13.5859375 C-15.11186048 11.77228458 -15.11186048 11.77228458 -18 10 C-18 9.01 -18 8.02 -18 7 C-12.72 7 -7.44 7 -2 7 C-1.34 4.69 -0.68 2.38 0 0 Z " fill="#9A9487" transform="translate(26,61)"/>
<path d="M0 0 C5.28 0 10.56 0 16 0 C16.06058594 1.50433594 16.12117188 3.00867188 16.18359375 4.55859375 C16.26798043 6.51823989 16.35262935 8.47787476 16.4375 10.4375 C16.47681641 11.43072266 16.51613281 12.42394531 16.55664062 13.44726562 C16.59853516 14.39150391 16.64042969 15.33574219 16.68359375 16.30859375 C16.72025146 17.18314209 16.75690918 18.05769043 16.79467773 18.95874023 C16.78181066 20.9927402 16.78181066 20.9927402 18 22 C20.32817964 22.36760731 22.6618385 22.70241581 25 23 C24.34 23.33 23.68 23.66 23 24 C23 24.66 23 25.32 23 26 C24.97536745 25.65213292 24.97536745 25.65213292 27 25 C27.33 24.34 27.66 23.68 28 23 C28.99 24.32 29.98 25.64 31 27 C30.67 25.68 30.34 24.36 30 23 C33.96 23 37.92 23 42 23 C42.495 23.99 42.495 23.99 43 25 C43.66 25 44.32 25 45 25 C45.33 24.34 45.66 23.68 46 23 C47.32 23.33 48.64 23.66 50 24 C48.68 25.32 47.36 26.64 46 28 C47.20010745 28.96861464 48.41058244 29.9243885 49.625 30.875 C50.29789063 31.40867187 50.97078125 31.94234375 51.6640625 32.4921875 C57.48749681 36.2511267 63.43784946 36.34876025 70.171875 36.65625 C73 37 73 37 75 39 C75.33 39.99 75.66 40.98 76 42 C76.66 42 77.32 42 78 42 C78 41.34 78 40.68 78 40 C78.66 40 79.32 40 80 40 C80 39.34 80 38.68 80 38 C78.68 37.34 77.36 36.68 76 36 C76.74765625 35.48050781 77.4953125 34.96101563 78.265625 34.42578125 C79.25046875 33.72839844 80.2353125 33.03101563 81.25 32.3125 C82.22453125 31.62800781 83.1990625 30.94351563 84.203125 30.23828125 C87.09131826 28.12873972 87.09131826 28.12873972 89 25.25 C91 23 91 23 93.796875 22.51171875 C94.77140625 22.56972656 95.7459375 22.62773438 96.75 22.6875 C97.73484375 22.73261719 98.7196875 22.77773437 99.734375 22.82421875 C100.48203125 22.88222656 101.2296875 22.94023438 102 23 C101.67 23.969375 101.34 24.93875 101 25.9375 C99.94826637 28.62149574 99.94826637 28.62149574 100 30 C101.65 30.66 103.3 31.32 105 32 C104.67 31.67 104.34 31.34 104 31 C103.63837971 29.67405895 103.30271961 28.34061543 103 27 C103.495 27.99 103.495 27.99 104 29 C106.02463255 29.65213292 106.02463255 29.65213292 108 30 C108 29.34 108 28.68 108 28 C108.66 28 109.32 28 110 28 C110 27.34 110 26.68 110 26 C108.02 25.34 106.04 24.68 104 24 C107 23 107 23 110 23 C111.98 22.67 113.96 22.34 116 22 C116.33 14.74 116.66 7.48 117 0 C122.94 0 128.88 0 135 0 C132.66223961 4.67552077 129.94992121 6.64785319 125.8984375 9.8046875 C123.68404747 11.93012008 123.68404747 11.93012008 123.7265625 15.2578125 C123.81679687 16.16273437 123.90703125 17.06765625 124 18 C124.88945312 18.38671875 124.88945312 18.38671875 125.796875 18.78125 C128.17660965 20.09769895 129.50978792 21.42580782 131.25 23.5 C132.03117187 24.41265625 132.03117187 24.41265625 132.828125 25.34375 C134 27 134 27 134 29 C125.75 29 117.5 29 109 29 C108.67 30.32 108.34 31.64 108 33 C101.24556278 43.98887034 91.17841069 51.12353867 79 55 C75.18995347 55.78167406 71.57349808 56.13679362 67.6875 56.125 C66.39392578 56.12886719 66.39392578 56.12886719 65.07421875 56.1328125 C63 56 63 56 62 55 C60.906875 55.0825 59.81375 55.165 58.6875 55.25 C47.18771969 55.37387555 37.52761535 47.50726655 29.6875 39.9375 C23 33.0660609 23 33.0660609 23 29 C15.41 29 7.82 29 0 29 C1.92140868 25.15718264 3.5926816 23.19568073 6.625 20.25 C7.44226563 19.45078125 8.25953125 18.6515625 9.1015625 17.828125 C9.72804688 17.22484375 10.35453125 16.6215625 11 16 C9.66342976 13.09663689 8.15277429 10.7897189 6.0625 8.375 C5.55847656 7.78460938 5.05445313 7.19421875 4.53515625 6.5859375 C2.88813952 4.77228458 2.88813952 4.77228458 0 3 C0 2.01 0 1.02 0 0 Z " fill="#231E13" transform="translate(8,68)"/>
<path d="M0 0 C8.19964267 5.28234667 14.39121905 11.88522531 18.66796875 20.71875 C19.35546875 24.0546875 19.35546875 24.0546875 19.66796875 26.71875 C19.00796875 26.71875 18.34796875 26.71875 17.66796875 26.71875 C17.00796875 25.72875 16.34796875 24.73875 15.66796875 23.71875 C15.00796875 24.04875 14.34796875 24.37875 13.66796875 24.71875 C13.99796875 25.37875 14.32796875 26.03875 14.66796875 26.71875 C12.10290451 26.88151553 9.54821453 26.99988984 6.98046875 27.09375 C6.25923828 27.14402344 5.53800781 27.19429687 4.79492188 27.24609375 C2.60771279 27.30601729 0.79108506 27.25945338 -1.33203125 26.71875 C-4.04296875 23.90234375 -4.04296875 23.90234375 -6.33203125 20.71875 C-11.16724962 17.06360077 -16.15735307 14.04373306 -22.33203125 13.71875 C-22.33203125 16.68875 -22.33203125 19.65875 -22.33203125 22.71875 C-21.67203125 22.71875 -21.01203125 22.71875 -20.33203125 22.71875 C-20.04328125 21.749375 -19.75453125 20.78 -19.45703125 19.78125 C-18.33203125 16.71875 -18.33203125 16.71875 -16.33203125 15.71875 C-16.33203125 18.35875 -16.33203125 20.99875 -16.33203125 23.71875 C-14.35203125 22.06875 -12.37203125 20.41875 -10.33203125 18.71875 C-12.20703125 25.59375 -12.20703125 25.59375 -13.33203125 26.71875 C-15.25870632 26.80623207 -17.18854986 26.82572334 -19.1171875 26.81640625 C-20.28701172 26.81318359 -21.45683594 26.80996094 -22.66210938 26.80664062 C-23.89380859 26.79826172 -25.12550781 26.78988281 -26.39453125 26.78125 C-28.24788086 26.77448242 -28.24788086 26.77448242 -30.13867188 26.76757812 C-33.20317242 26.75574608 -36.26757846 26.73926173 -39.33203125 26.71875 C-42.33203125 20.96875 -42.33203125 20.96875 -42.33203125 18.71875 C-43.65203125 20.03875 -44.97203125 21.35875 -46.33203125 22.71875 C-45.01203125 24.03875 -43.69203125 25.35875 -42.33203125 26.71875 C-43.65203125 26.71875 -44.97203125 26.71875 -46.33203125 26.71875 C-46.66203125 26.05875 -46.99203125 25.39875 -47.33203125 24.71875 C-47.99203125 24.71875 -48.65203125 24.71875 -49.33203125 24.71875 C-49.66203125 25.37875 -49.99203125 26.03875 -50.33203125 26.71875 C-57.66536458 26.71875 -64.99869792 26.71875 -72.33203125 26.71875 C-70.53991337 19.92756644 -67.92448459 15.01530946 -63.33203125 9.71875 C-62.77902344 9.0484375 -62.22601563 8.378125 -61.65625 7.6875 C-45.60340111 -10.18719256 -19.89526776 -11.4488988 0 0 Z " fill="#080503" transform="translate(100.33203125,33.28125)"/>
<path d="M0 0 C19.8 0 39.6 0 60 0 C60.495 1.485 60.495 1.485 61 3 C61.66 3.33 62.32 3.66 63 4 C62.34 4 61.68 4 61 4 C61 6.64 61 9.28 61 12 C62.32 11.67 63.64 11.34 65 11 C65.99 12.98 65.99 12.98 67 15 C64.69 14.34 62.38 13.68 60 13 C60 10.03 60 7.06 60 4 C57.06556598 4.26656572 57.06556598 4.26656572 54 5 C53.34 5.99 52.68 6.98 52 8 C51.505 6.515 51.505 6.515 51 5 C49.35 5.33 47.7 5.66 46 6 C46.2475 7.60875 46.2475 7.60875 46.5 9.25 C47.41987087 16.14903152 46.16806071 19.05988616 43 25 C40.03 24.67 37.06 24.34 34 24 C34.763125 24.12375 35.52625 24.2475 36.3125 24.375 C39 25 39 25 42 27 C36.17928378 27.02464638 30.35859766 27.0428343 24.5378418 27.05493164 C22.55606559 27.05997267 20.57429311 27.06680538 18.5925293 27.07543945 C15.75047891 27.08751515 12.90847753 27.09323045 10.06640625 27.09765625 C8.72891075 27.10539818 8.72891075 27.10539818 7.36439514 27.11329651 C5.24259399 27.11349177 3.1208922 27.0621003 1 27 C0.67 26.67 0.34 26.34 0 26 C0 17.42 0 8.84 0 0 Z " fill="#0D0904" transform="translate(25,62)"/>
<path d="M0 0 C8.19964267 5.28234667 14.39121905 11.88522531 18.66796875 20.71875 C19.35546875 24.0546875 19.35546875 24.0546875 19.66796875 26.71875 C19.00796875 26.71875 18.34796875 26.71875 17.66796875 26.71875 C17.00796875 25.72875 16.34796875 24.73875 15.66796875 23.71875 C15.00796875 24.04875 14.34796875 24.37875 13.66796875 24.71875 C13.99796875 25.37875 14.32796875 26.03875 14.66796875 26.71875 C12.33984375 27 12.33984375 27 9.66796875 26.71875 C8.18359375 24.8125 8.18359375 24.8125 6.91796875 22.21875 C1.66310867 12.73043487 -5.95705244 7.40234536 -16.1484375 4.13671875 C-25.39132321 2.36750807 -34.59944354 3.50848442 -43.33203125 6.71875 C-44.66108879 7.06874278 -45.99336976 7.40750365 -47.33203125 7.71875 C-47.33203125 8.70875 -47.33203125 9.69875 -47.33203125 10.71875 C-48.35296875 10.96625 -48.35296875 10.96625 -49.39453125 11.21875 C-55.60443123 14.38976276 -59.65178473 20.41228759 -62.33203125 26.71875 C-63.69328125 26.4403125 -63.69328125 26.4403125 -65.08203125 26.15625 C-68.08863979 25.75151424 -69.52007745 25.89350269 -72.33203125 26.71875 C-70.53991337 19.92756644 -67.92448459 15.01530946 -63.33203125 9.71875 C-62.77902344 9.0484375 -62.22601563 8.378125 -61.65625 7.6875 C-45.60340111 -10.18719256 -19.89526776 -11.4488988 0 0 Z " fill="#716E65" transform="translate(100.33203125,33.28125)"/>
<path d="M0 0 C3.96 0 7.92 0 12 0 C12.33 0.66 12.66 1.32 13 2 C13.66 2 14.32 2 15 2 C15.33 1.34 15.66 0.68 16 0 C17.32 0.33 18.64 0.66 20 1 C18.68 2.32 17.36 3.64 16 5 C17.20010745 5.96861464 18.41058244 6.9243885 19.625 7.875 C20.29789063 8.40867187 20.97078125 8.94234375 21.6640625 9.4921875 C27.48749681 13.2511267 33.43784946 13.34876025 40.171875 13.65625 C43 14 43 14 45 16 C45.495 17.485 45.495 17.485 46 19 C46.66 19 47.32 19 48 19 C48 18.34 48 17.68 48 17 C48.66 17 49.32 17 50 17 C50 16.34 50 15.68 50 15 C48.68 14.34 47.36 13.68 46 13 C47.12148437 12.22076172 47.12148437 12.22076172 48.265625 11.42578125 C49.25046875 10.72839844 50.2353125 10.03101562 51.25 9.3125 C52.22453125 8.62800781 53.1990625 7.94351563 54.203125 7.23828125 C57.09131826 5.12873972 57.09131826 5.12873972 59 2.25 C61 0 61 0 63.796875 -0.48828125 C64.77140625 -0.43027344 65.7459375 -0.37226562 66.75 -0.3125 C67.73484375 -0.26738281 68.7196875 -0.22226563 69.734375 -0.17578125 C70.85585937 -0.08876953 70.85585937 -0.08876953 72 0 C69.76114897 8.09521398 63.98525048 14.28473491 57.0625 18.9375 C47.28506737 24.35446661 36.70185705 25.55705413 25.75390625 23.34375 C15.9848599 20.45659235 7.72320493 14.49750427 2 6 C0.625 2.5625 0.625 2.5625 0 0 Z " fill="#0B0806" transform="translate(38,91)"/>
<path d="M0 0 C3.3 0 6.6 0 10 0 C10 1.32 10 2.64 10 4 C8.02 4 6.04 4 4 4 C4 6.31 4 8.62 4 11 C4.66 11 5.32 11 6 11 C6 9.35 6 7.7 6 6 C6.66 6 7.32 6 8 6 C8 7.65 8 9.3 8 11 C8.53625 10.814375 9.0725 10.62875 9.625 10.4375 C12.61990614 9.88580676 15.03745829 10.39402556 18 11 C17.73343428 8.06556598 17.73343428 8.06556598 17 5 C16.01 4.34 15.02 3.68 14 3 C15.08203125 1.51171875 15.08203125 1.51171875 17 0 C20.13671875 -0.29296875 20.13671875 -0.29296875 23.6875 -0.1875 C25.45673828 -0.14689453 25.45673828 -0.14689453 27.26171875 -0.10546875 C28.16535156 -0.07066406 29.06898437 -0.03585938 30 0 C30.02886537 4.31248609 30.04675255 8.62494762 30.0625 12.9375 C30.07087891 14.16919922 30.07925781 15.40089844 30.08789062 16.66992188 C30.09111328 17.83974609 30.09433594 19.00957031 30.09765625 20.21484375 C30.10289307 21.29886475 30.10812988 22.38288574 30.11352539 23.49975586 C30 26 30 26 29 27 C27.34261557 27.09346915 25.68125356 27.11744977 24.02124023 27.11352539 C22.96021591 27.11344986 21.89919159 27.11337433 20.80601501 27.11329651 C19.07479149 27.10555458 19.07479149 27.10555458 17.30859375 27.09765625 C16.13361832 27.0962413 14.95864288 27.09482635 13.74806213 27.09336853 C9.97784936 27.08774992 6.20769496 27.07519426 2.4375 27.0625 C-0.11132727 27.0574874 -2.66015547 27.05292408 -5.20898438 27.04882812 C-11.47267633 27.03777444 -17.73633399 27.02101821 -24 27 C-19.54996956 23.53145379 -16.15047712 21.74045966 -10.375 22.4375 C-9.26125 22.623125 -8.1475 22.80875 -7 23 C-6.01 22.7525 -6.01 22.7525 -5 22.5 C-1.90556049 21.72639012 0.89771426 22.46306593 4 23 C3.67 22.01 3.34 21.02 3 20 C3.92203709 17.63477442 4.91698965 15.29598193 6 13 C4.02 13.33 2.04 13.66 0 14 C0 13.01 0 12.02 0 11 C0.99 11 1.98 11 3 11 C2.73343428 8.06556598 2.73343428 8.06556598 2 5 C1.01 4.34 0.02 3.68 -1 3 C-0.67 2.01 -0.34 1.02 0 0 Z " fill="#080402" transform="translate(93,62)"/>
<path d="M0 0 C31.68 0 63.36 0 96 0 C96 0.33 96 0.66 96 1 C95.15695313 1.04898438 94.31390625 1.09796875 93.4453125 1.1484375 C92.34960938 1.22320312 91.25390625 1.29796875 90.125 1.375 C88.48917969 1.47941406 88.48917969 1.47941406 86.8203125 1.5859375 C83.86953526 1.73253491 83.86953526 1.73253491 82 4 C82.99 4.66 83.98 5.32 85 6 C85.1875 9.125 85.1875 9.125 85 12 C81.7 12 78.4 12 75 12 C75 10.35 75 8.7 75 7 C74.34 7 73.68 7 73 7 C73 8.65 73 10.3 73 12 C72.34 12 71.68 12 71 12 C71 9.69 71 7.38 71 5 C72.98 5 74.96 5 77 5 C77 3.68 77 2.36 77 1 C75.5199159 1.11362262 74.04089926 1.24122908 72.5625 1.375 C71.73878906 1.44460937 70.91507812 1.51421875 70.06640625 1.5859375 C69.38449219 1.72257812 68.70257813 1.85921875 68 2 C67.67 2.66 67.34 3.32 67 4 C67.99 4.66 68.98 5.32 70 6 C70.1875 9.125 70.1875 9.125 70 12 C69.01 12 68.02 12 67 12 C67 12.99 67 13.98 67 15 C69.97 14.505 69.97 14.505 73 14 C72.835 14.763125 72.67 15.52625 72.5 16.3125 C71.90854604 19.03596236 71.90854604 19.03596236 72 22 C71.505 23.485 71.505 23.485 71 25 C70.39671875 24.91621094 69.7934375 24.83242187 69.171875 24.74609375 C68.37265625 24.64425781 67.5734375 24.54242188 66.75 24.4375 C65.96109375 24.33308594 65.1721875 24.22867188 64.359375 24.12109375 C61.97956173 23.99895102 60.28123491 24.38912538 58 25 C56.32345271 24.72057545 54.65391846 24.39171753 53 24 C52.34 24 51.68 24 51 24 C50.34 24.66 49.68 25.32 49 26 C43.13591325 27.92099393 39.05403111 28.08107698 33 27 C33 26.34 33 25.68 33 25 C35.97 25 38.94 25 42 25 C43.65 21.7 45.3 18.4 47 15 C46.34 14.67 45.68 14.34 45 14 C44.25 10.5625 44.25 10.5625 44 7 C44.66 6.34 45.32 5.68 46 5 C48.00720923 5.28674418 50.0085944 5.61866701 52 6 C52.33 5.67 52.66 5.34 53 5 C54.99958364 4.95919217 57.00045254 4.95745644 59 5 C59.495 9.455 59.495 9.455 60 14 C62.475 14.495 62.475 14.495 65 15 C64.505 14.01 64.505 14.01 64 13 C62.68 13 61.36 13 60 13 C60.01160156 12.37351562 60.02320313 11.74703125 60.03515625 11.1015625 C60.04417969 10.28429687 60.05320313 9.46703125 60.0625 8.625 C60.07410156 7.81289062 60.08570313 7.00078125 60.09765625 6.1640625 C60.14466334 3.95062858 60.14466334 3.95062858 59 2 C29.795 1.505 29.795 1.505 0 1 C0 0.67 0 0.34 0 0 Z " fill="#452918" transform="translate(26,61)"/>
<path d="M0 0 C7.26 0 14.52 0 22 0 C22 0.66 22 1.32 22 2 C18.7 1.67 15.4 1.34 12 1 C12 3.97 12 6.94 12 10 C10.68 10 9.36 10 8 10 C8 11.32 8 12.64 8 14 C8.99 14 9.98 14 11 14 C11 13.01 11 12.02 11 11 C12.32 11 13.64 11 15 11 C15 10.01 15 9.02 15 8 C16.32 7.67 17.64 7.34 19 7 C19.33 8.32 19.66 9.64 20 11 C20.886875 10.979375 21.77375 10.95875 22.6875 10.9375 C25.62169631 10.99286219 28.15493696 11.3305734 31 12 C31 12.66 31 13.32 31 14 C30.360625 14.165 29.72125 14.33 29.0625 14.5 C26.83880759 15.781786 26.83880759 15.781786 26.51171875 17.9140625 C26.2724022 19.93575155 26.13106972 21.96841939 26 24 C27.65 24.66 29.3 25.32 31 26 C31 26.33 31 26.66 31 27 C26.74585377 27.02465622 22.49174502 27.04283899 18.23754883 27.05493164 C16.78929927 27.05997101 15.34105483 27.06680253 13.89282227 27.07543945 C11.81525412 27.08752247 9.73775303 27.09323211 7.66015625 27.09765625 C6.40855713 27.10289307 5.15695801 27.10812988 3.86743164 27.11352539 C1 27 1 27 0 26 C-0.08748207 24.07332493 -0.10697334 22.14348139 -0.09765625 20.21484375 C-0.09443359 19.04501953 -0.09121094 17.87519531 -0.08789062 16.66992188 C-0.07951172 15.43822266 -0.07113281 14.20652344 -0.0625 12.9375 C-0.05798828 11.70193359 -0.05347656 10.46636719 -0.04882812 9.19335938 C-0.03699618 6.12888587 -0.01906008 3.06443707 0 0 Z " fill="#060402" transform="translate(25,62)"/>
<path d="M0 0 C5.94 0 11.88 0 18 0 C15.66223961 4.67552077 12.94992121 6.64785319 8.8984375 9.8046875 C6.68404747 11.93012008 6.68404747 11.93012008 6.7265625 15.2578125 C6.81679687 16.16273437 6.90703125 17.06765625 7 18 C7.59296875 18.2578125 8.1859375 18.515625 8.796875 18.78125 C11.17660965 20.09769895 12.50978792 21.42580782 14.25 23.5 C15.03117187 24.41265625 15.03117187 24.41265625 15.828125 25.34375 C17 27 17 27 17 29 C8.75 29 0.5 29 -8 29 C-8.33 30.32 -8.66 31.64 -9 33 C-12.17487276 37.92446661 -15.55178877 42.52354035 -21 45 C-21.66 43.35 -22.32 41.7 -23 40 C-22.01 40.33 -21.02 40.66 -20 41 C-20 40.01 -20 39.02 -20 38 C-19.01 38.66 -18.02 39.32 -17 40 C-17 39.34 -17 38.68 -17 38 C-16.01 37.505 -16.01 37.505 -15 37 C-16.32 36.01 -17.64 35.02 -19 34 C-18.34 32.68 -17.68 31.36 -17 30 C-14.525 30.99 -14.525 30.99 -12 32 C-12.33 31.67 -12.66 31.34 -13 31 C-13.36162029 29.67405895 -13.69728039 28.34061543 -14 27 C-13.67 27.66 -13.34 28.32 -13 29 C-10.97536745 29.65213292 -10.97536745 29.65213292 -9 30 C-9 29.34 -9 28.68 -9 28 C-8.34 28 -7.68 28 -7 28 C-7 27.34 -7 26.68 -7 26 C-8.98 25.34 -10.96 24.68 -13 24 C-10 23 -10 23 -7 23 C-5.02 22.67 -3.04 22.34 -1 22 C-0.67 14.74 -0.34 7.48 0 0 Z " fill="#090807" transform="translate(125,68)"/>
<path d="M0 0 C5.28 0 10.56 0 16 0 C16.06058594 1.50433594 16.12117188 3.00867188 16.18359375 4.55859375 C16.26798043 6.51823989 16.35262935 8.47787476 16.4375 10.4375 C16.47681641 11.43072266 16.51613281 12.42394531 16.55664062 13.44726562 C16.59853516 14.39150391 16.64042969 15.33574219 16.68359375 16.30859375 C16.72025146 17.18314209 16.75690918 18.05769043 16.79467773 18.95874023 C16.78181066 20.9927402 16.78181066 20.9927402 18 22 C20.32817964 22.36760731 22.6618385 22.70241581 25 23 C24.34 23.33 23.68 23.66 23 24 C23 24.66 23 25.32 23 26 C24.97536745 25.65213292 24.97536745 25.65213292 27 25 C27.33 24.34 27.66 23.68 28 23 C32 28.75 32 28.75 32 31 C30.02 31.99 30.02 31.99 28 33 C28.66 33.66 29.32 34.32 30 35 C30.66 35 31.32 35 32 35 C32.66 34.34 33.32 33.68 34 33 C35.65 34.98 37.3 36.96 39 39 C38.21625 39.12375 37.4325 39.2475 36.625 39.375 C33.85942178 39.79117993 33.85942178 39.79117993 32 42 C30.86652945 40.77864002 29.74358413 39.54750819 28.625 38.3125 C27.99851562 37.62800781 27.37203125 36.94351563 26.7265625 36.23828125 C25 34 25 34 23 29 C15.41 29 7.82 29 0 29 C1.92140868 25.15718264 3.5926816 23.19568073 6.625 20.25 C7.44226563 19.45078125 8.25953125 18.6515625 9.1015625 17.828125 C9.72804688 17.22484375 10.35453125 16.6215625 11 16 C9.66342976 13.09663689 8.15277429 10.7897189 6.0625 8.375 C5.55847656 7.78460938 5.05445313 7.19421875 4.53515625 6.5859375 C2.88813952 4.77228458 2.88813952 4.77228458 0 3 C0 2.01 0 1.02 0 0 Z " fill="#11100F" transform="translate(8,68)"/>
<path d="M0 0 C0.66 0.33 1.32 0.66 2 1 C2.625 4.0625 2.625 4.0625 3 7 C3.95777344 6.67515625 4.91554688 6.3503125 5.90234375 6.015625 C10.45985493 4.71773754 14.85210256 4.7055972 19.5625 4.75 C20.38685547 4.74226563 21.21121094 4.73453125 22.06054688 4.7265625 C26.76967676 4.74161967 30.57435992 5.19244522 35 7 C31.66287593 8.11237469 31.22630951 7.82611385 28 7 C19.10645225 6.45592414 11.40491081 6.91019469 3 10 C1.67094246 10.34999278 0.33866149 10.68875365 -1 11 C-1 11.99 -1 12.98 -1 14 C-1.680625 14.165 -2.36125 14.33 -3.0625 14.5 C-9.27239998 17.67101276 -13.31975348 23.69353759 -16 30 C-16.9075 29.814375 -17.815 29.62875 -18.75 29.4375 C-21.75660854 29.03276424 -23.1880462 29.17475269 -26 30 C-23.08562741 18.95606175 -16.05889688 9.76616718 -6.55859375 3.3515625 C-2.28098181 0.86601592 -2.28098181 0.86601592 0 0 Z " fill="#2A261F" transform="translate(54,30)"/>
<path d="M0 0 C1.07765625 0.00902344 2.1553125 0.01804688 3.265625 0.02734375 C4.08546875 0.03894531 4.9053125 0.05054688 5.75 0.0625 C4.76 0.5575 4.76 0.5575 3.75 1.0625 C3.75 4.0325 3.75 7.0025 3.75 10.0625 C4.41 10.0625 5.07 10.0625 5.75 10.0625 C6.183125 8.6084375 6.183125 8.6084375 6.625 7.125 C7.75 4.0625 7.75 4.0625 9.75 3.0625 C9.75 5.7025 9.75 8.3425 9.75 11.0625 C11.73 9.4125 13.71 7.7625 15.75 6.0625 C13.875 12.9375 13.875 12.9375 12.75 14.0625 C10.82332493 14.14998207 8.89348139 14.16947334 6.96484375 14.16015625 C5.79501953 14.15693359 4.62519531 14.15371094 3.41992188 14.15039062 C2.18822266 14.14201172 0.95652344 14.13363281 -0.3125 14.125 C-2.16584961 14.11823242 -2.16584961 14.11823242 -4.05664062 14.11132812 C-7.12114117 14.09949608 -10.18554721 14.08301173 -13.25 14.0625 C-16.25 8.3359375 -16.25 8.3359375 -16.25 5.875 C-14.5454264 2.78546035 -11.74893127 1.55006446 -8.47265625 0.484375 C-5.61654931 -0.05773317 -2.90506767 -0.03157682 0 0 Z " fill="#1E170F" transform="translate(74.25,45.9375)"/>
<path d="M0 0 C1.02963867 -0.01836914 1.02963867 -0.01836914 2.08007812 -0.03710938 C6.81322725 -0.0505431 10.69220432 0.70082051 15.1875 2.1875 C14.5275 4.4975 13.8675 6.8075 13.1875 9.1875 C13.8475 9.1875 14.5075 9.1875 15.1875 9.1875 C15.5175 7.8675 15.8475 6.5475 16.1875 5.1875 C16.6825 6.6725 16.6825 6.6725 17.1875 8.1875 C16.8575 8.8475 16.5275 9.5075 16.1875 10.1875 C18.1675 9.8575 20.1475 9.5275 22.1875 9.1875 C21.8575 10.5075 21.5275 11.8275 21.1875 13.1875 C21.8475 13.5175 22.5075 13.8475 23.1875 14.1875 C19.98335173 13.67070189 17.11800926 12.79850121 14.09375 11.6640625 C9.18752284 10.01474775 4.76630148 9.77075626 -0.375 9.875 C-1.17357422 9.87177734 -1.97214844 9.86855469 -2.79492188 9.86523438 C-8.10174404 9.9128098 -12.71301041 10.72132373 -17.8125 12.1875 C-18.1425 9.5475 -18.4725 6.9075 -18.8125 4.1875 C-12.2510938 1.28533957 -7.25484534 0.00669884 0 0 Z " fill="#3F392F" transform="translate(73.8125,25.8125)"/>
<path d="M0 0 C31.68 0 63.36 0 96 0 C96 0.33 96 0.66 96 1 C95.15695313 1.04898438 94.31390625 1.09796875 93.4453125 1.1484375 C92.34960938 1.22320312 91.25390625 1.29796875 90.125 1.375 C88.48917969 1.47941406 88.48917969 1.47941406 86.8203125 1.5859375 C83.86953526 1.73253491 83.86953526 1.73253491 82 4 C82.99 4.66 83.98 5.32 85 6 C85.1875 9.125 85.1875 9.125 85 12 C81.7 12 78.4 12 75 12 C75 10.35 75 8.7 75 7 C74.34 7 73.68 7 73 7 C73 8.65 73 10.3 73 12 C72.34 12 71.68 12 71 12 C71 9.69 71 7.38 71 5 C72.98 5 74.96 5 77 5 C77 3.68 77 2.36 77 1 C75.5199159 1.11362262 74.04089926 1.24122908 72.5625 1.375 C71.73878906 1.44460937 70.91507812 1.51421875 70.06640625 1.5859375 C69.38449219 1.72257812 68.70257813 1.85921875 68 2 C67.67 2.66 67.34 3.32 67 4 C67.99 4.66 68.98 5.32 70 6 C70.1875 9.125 70.1875 9.125 70 12 C66.7 12.33 63.4 12.66 60 13 C60.03255208 10.72135417 60.06510417 8.44270833 60.09765625 6.1640625 C60.14466334 3.95062858 60.14466334 3.95062858 59 2 C29.795 1.505 29.795 1.505 0 1 C0 0.67 0 0.34 0 0 Z " fill="#615948" transform="translate(26,61)"/>
<path d="M0 0 C1.12438477 0.06574219 1.12438477 0.06574219 2.27148438 0.1328125 C3.43067383 0.21015625 3.43067383 0.21015625 4.61328125 0.2890625 C5.78987305 0.35480469 5.78987305 0.35480469 6.99023438 0.421875 C12.79481207 0.78309332 12.79481207 0.78309332 13.92578125 1.9140625 C13.96658908 3.91364614 13.96832481 5.91451504 13.92578125 7.9140625 C13.26578125 7.9140625 12.60578125 7.9140625 11.92578125 7.9140625 C11.92578125 6.2640625 11.92578125 4.6140625 11.92578125 2.9140625 C11.26578125 2.9140625 10.60578125 2.9140625 9.92578125 2.9140625 C9.94640625 3.8834375 9.96703125 4.8528125 9.98828125 5.8515625 C9.92578125 8.9140625 9.92578125 8.9140625 8.92578125 9.9140625 C9.58578125 10.2440625 10.24578125 10.5740625 10.92578125 10.9140625 C10.92578125 13.2240625 10.92578125 15.5340625 10.92578125 17.9140625 C6.50878637 19.01831122 2.4522035 19.06494324 -2.07421875 18.9140625 C-3.07421875 17.9140625 -3.07421875 17.9140625 -3.13671875 14.8515625 C-3.11609375 13.8821875 -3.09546875 12.9128125 -3.07421875 11.9140625 C-1.75421875 11.5840625 -0.43421875 11.2540625 0.92578125 10.9140625 C0.92578125 10.2540625 0.92578125 9.5940625 0.92578125 8.9140625 C0.38953125 9.1203125 -0.14671875 9.3265625 -0.69921875 9.5390625 C-3.90689183 10.0455372 -6.08738941 9.06806475 -9.07421875 7.9140625 C-8.74421875 6.9240625 -8.41421875 5.9340625 -8.07421875 4.9140625 C-8.07421875 5.5740625 -8.07421875 6.2340625 -8.07421875 6.9140625 C-7.08421875 6.9140625 -6.09421875 6.9140625 -5.07421875 6.9140625 C-5.07421875 5.2640625 -5.07421875 3.6140625 -5.07421875 1.9140625 C-6.39421875 2.2440625 -7.71421875 2.5740625 -9.07421875 2.9140625 C-8.07421875 0.9140625 -8.07421875 0.9140625 -6.26635742 0.28369141 C-4.08177175 -0.08466395 -2.20766257 -0.1314054 0 0 Z " fill="#261F16" transform="translate(55.07421875,65.0859375)"/>
<path d="M0 0 C0.97453125 0.05800781 1.9490625 0.11601563 2.953125 0.17578125 C3.93796875 0.22089844 4.9228125 0.26601562 5.9375 0.3125 C7.05898437 0.39951172 7.05898437 0.39951172 8.203125 0.48828125 C5.71660705 9.47900667 -1.06043907 15.98736197 -8.97265625 20.6484375 C-10.8921958 21.53216556 -12.73411912 22.04658739 -14.796875 22.48828125 C-14.466875 20.17828125 -14.136875 17.86828125 -13.796875 15.48828125 C-15.116875 14.82828125 -16.436875 14.16828125 -17.796875 13.48828125 C-17.04921875 12.96878906 -16.3015625 12.44929688 -15.53125 11.9140625 C-14.54640625 11.21667969 -13.5615625 10.51929687 -12.546875 9.80078125 C-11.08507812 8.77404297 -11.08507812 8.77404297 -9.59375 7.7265625 C-6.70555674 5.61702097 -6.70555674 5.61702097 -4.796875 2.73828125 C-2.796875 0.48828125 -2.796875 0.48828125 0 0 Z " fill="#070403" transform="translate(101.796875,90.51171875)"/>
<path d="M0 0 C0.66 0 1.32 0 2 0 C1.34 2.64 0.68 5.28 0 8 C1.98 6.35 3.96 4.7 6 3 C6 5.64 6 8.28 6 11 C6.99 9.02 7.98 7.04 9 5 C9.66 5 10.32 5 11 5 C11.33 7.64 11.66 10.28 12 13 C12.66 10.36 13.32 7.72 14 5 C14.66 5 15.32 5 16 5 C16.66 6.98 17.32 8.96 18 11 C18.33 9.02 18.66 7.04 19 5 C19.66 5 20.32 5 21 5 C22.625 7.5 22.625 7.5 24 10 C24 8.68 24 7.36 24 6 C24 5.01 24 4.02 24 3 C24.66 3 25.32 3 26 3 C27.37482707 4.63260714 28.70647667 6.30225062 30 8 C30.66 8.66 31.32 9.32 32 10 C30.02 11.32 28.04 12.64 26 14 C26.99 14.66 27.98 15.32 29 16 C29 16.66 29 17.32 29 18 C28.34 18 27.68 18 27 18 C27 18.66 27 19.32 27 20 C26.01 20.33 25.02 20.66 24 21 C23.34 19.35 22.68 17.7 22 16 C20.7315625 15.94392578 20.7315625 15.94392578 19.4375 15.88671875 C8.51083371 15.25346877 1.92512289 13.6526968 -6 6 C-4.6875 4 -4.6875 4 -3 2 C-2.01 2 -1.02 2 0 2 C0 1.34 0 0.68 0 0 Z " fill="#BFB59A" transform="translate(59,90)"/>
<path d="M0 0 C0.66 0 1.32 0 2 0 C4.28831108 4.57662216 3.18502705 10.97497292 3.1875 16 C3.19974609 17.3096875 3.21199219 18.619375 3.22460938 19.96875 C3.22750977 21.84046875 3.22750977 21.84046875 3.23046875 23.75 C3.23457764 24.89984375 3.23868652 26.0496875 3.24291992 27.234375 C3 30 3 30 1 32 C0.18595703 30.96939453 0.18595703 30.96939453 -0.64453125 29.91796875 C-1.35996094 29.01691406 -2.07539063 28.11585937 -2.8125 27.1875 C-3.52019531 26.29417969 -4.22789062 25.40085937 -4.95703125 24.48046875 C-6.8386523 22.03694486 -6.8386523 22.03694486 -8.82421875 20.48828125 C-10 19 -10 19 -10 16.60546875 C-8.68237746 13.17244441 -6.80710184 11.66105537 -4 9.3125 C-0.50290207 6.55179038 -0.50290207 6.55179038 2 3 C-3.94 3 -9.88 3 -16 3 C-16 2.67 -16 2.34 -16 2 C-10.72 2 -5.44 2 0 2 C0 1.34 0 0.68 0 0 Z " fill="#F1F1F1" transform="translate(141,65)"/>
<path d="M0 0 C0.495 0.99 0.495 0.99 1 2 C1.66 2.33 2.32 2.66 3 3 C5 4 5 4 6 6 C5.01 6 4.02 6 3 6 C3 6.66 3 7.32 3 8 C2.01 8 1.02 8 0 8 C0 8.99 0 9.98 0 11 C-0.33 11 -0.66 11 -1 11 C-1.0825 11.598125 -1.165 12.19625 -1.25 12.8125 C-2.24028397 15.70082825 -3.34936773 16.52742652 -6 18 C-8.6875 18.25 -8.6875 18.25 -11 18 C-11.33 17.67 -11.66 17.34 -12 17 C-12 17.66 -12 18.32 -12 19 C-12.66 19 -13.32 19 -14 19 C-14.33 17.35 -14.66 15.7 -15 14 C-16.45599609 14.48533203 -16.45599609 14.48533203 -17.94140625 14.98046875 C-22.2918562 16.21767239 -26.43758956 16.33148696 -30.9375 16.3125 C-31.69740234 16.32861328 -32.45730469 16.34472656 -33.24023438 16.36132812 C-38.79092752 16.36606826 -42.90437438 15.19709 -48 13 C-45 12 -45 12 -42.1875 12.9375 C-32.17250889 16.00115762 -21.32316536 14.40485784 -12 10 C-7.48500743 7.23179144 -3.59324938 3.89268683 0 0 Z " fill="#726F66" transform="translate(105,100)"/>
<path d="M0 0 C1.12591553 0.00523682 2.25183105 0.01047363 3.41186523 0.01586914 C4.62680664 0.0190918 5.84174805 0.02231445 7.09350586 0.02563477 C8.37290039 0.03401367 9.65229492 0.04239258 10.97045898 0.05102539 C12.2537207 0.05553711 13.53698242 0.06004883 14.85913086 0.06469727 C18.04211921 0.07652994 21.22501661 0.09301471 24.40795898 0.11352539 C25.39795898 2.75352539 26.38795898 5.39352539 27.40795898 8.11352539 C24.78608405 7.06477542 23.61424538 6.46421226 22.15795898 3.98852539 C21.91045898 3.36977539 21.66295898 2.75102539 21.40795898 2.11352539 C20.74795898 2.11352539 20.08795898 2.11352539 19.40795898 2.11352539 C20.06795898 5.08352539 20.72795898 8.05352539 21.40795898 11.11352539 C20.74795898 11.11352539 20.08795898 11.11352539 19.40795898 11.11352539 C16.40795898 6.72891001 16.40795898 6.72891001 16.40795898 4.11352539 C15.74795898 4.11352539 15.08795898 4.11352539 14.40795898 4.11352539 C14.40795898 7.08352539 14.40795898 10.05352539 14.40795898 13.11352539 C12.28287655 9.92590174 11.90594269 7.84840316 11.40795898 4.11352539 C10.74795898 4.11352539 10.08795898 4.11352539 9.40795898 4.11352539 C9.28420898 5.41290039 9.16045898 6.71227539 9.03295898 8.05102539 C8.82202148 10.26586914 8.82202148 10.26586914 8.40795898 12.11352539 C7.41795898 12.60852539 7.41795898 12.60852539 6.40795898 13.11352539 C6.40795898 10.14352539 6.40795898 7.17352539 6.40795898 4.11352539 C5.74795898 4.11352539 5.08795898 4.11352539 4.40795898 4.11352539 C3.97483398 5.56758789 3.97483398 5.56758789 3.53295898 7.05102539 C2.40795898 10.11352539 2.40795898 10.11352539 0.40795898 11.11352539 C0.40795898 8.47352539 0.40795898 5.83352539 0.40795898 3.11352539 C-2.56204102 5.58852539 -2.56204102 5.58852539 -5.59204102 8.11352539 C-3.42011402 0.14979307 -3.42011402 0.14979307 0 0 Z " fill="#140F07" transform="translate(63.592041015625,90.886474609375)"/>
<path d="M0 0 C5.62498649 -0.88815576 9.09546584 1.40468339 13.70703125 4.265625 C15.86653062 5.89904531 16.88007621 7.10081822 18.25 9.375 C22.37485901 13.31236542 26.31179763 12.59125057 31.8203125 12.50390625 C35.08070718 11.9872098 36.0916784 11.61175401 38 9 C38.66 10.32 39.32 11.64 40 13 C40.66 13 41.32 13 42 13 C42.33 12.34 42.66 11.68 43 11 C43 11.99 43 12.98 43 14 C28.15 14 13.3 14 -2 14 C-2 13.67 -2 13.34 -2 13 C3.445 12.505 3.445 12.505 9 12 C9.66 10.02 10.32 8.04 11 6 C9.02 7.65 7.04 9.3 5 11 C5 8.36 5 5.72 5 3 C4.01 4.98 3.02 6.96 2 9 C1.34 9 0.68 9 0 9 C0 6.03 0 3.06 0 0 Z " fill="#CCBFA2" transform="translate(78,47)"/>
<path d="M0 0 C2.00720923 0.28674418 4.0085944 0.61866701 6 1 C6.33 0.67 6.66 0.34 7 0 C8.99958364 -0.04080783 11.00045254 -0.04254356 13 0 C13.1953125 6.0546875 13.1953125 6.0546875 13 8 C12.34 8.66 11.68 9.32 11 10 C8.875 9.625 8.875 9.625 7 9 C8.32 8.67 9.64 8.34 11 8 C9.68 7.67 8.36 7.34 7 7 C3.78013956 12.38220318 3.78013956 12.38220318 3.25 18.5 C3.4975 19.325 3.745 20.15 4 21 C2.66961551 21.3449145 1.33542939 21.67516582 0 22 C-0.7425 22.20625 -1.485 22.4125 -2.25 22.625 C-6.00959181 23.13767161 -9.25138568 22.57182252 -13 22 C-13 21.34 -13 20.68 -13 20 C-10.03 20 -7.06 20 -4 20 C-2.35 16.7 -0.7 13.4 1 10 C0.34 9.67 -0.32 9.34 -1 9 C-1.75 5.5625 -1.75 5.5625 -2 2 C-1.34 1.34 -0.68 0.68 0 0 Z " fill="#281308" transform="translate(72,66)"/>
<path d="M0 0 C1.76923828 0.04060547 1.76923828 0.04060547 3.57421875 0.08203125 C4.47785156 0.11683594 5.38148437 0.15164062 6.3125 0.1875 C6.81924134 6.1417108 5.8233488 11.219117 2.3125 16.1875 C-0.9375 17.25 -0.9375 17.25 -3.6875 17.1875 C-4.3475 15.5375 -5.0075 13.8875 -5.6875 12.1875 C-7.6675 12.1875 -9.6475 12.1875 -11.6875 12.1875 C-11.6875 11.8575 -11.6875 11.5275 -11.6875 11.1875 C-9.7075 11.1875 -7.7275 11.1875 -5.6875 11.1875 C-5.95406572 8.25306598 -5.95406572 8.25306598 -6.6875 5.1875 C-7.6775 4.5275 -8.6675 3.8675 -9.6875 3.1875 C-6.99455929 -0.5165087 -4.35133403 -0.12924755 0 0 Z " fill="#090605" transform="translate(116.6875,61.8125)"/>
<path d="M0 0 C29.7 0.495 29.7 0.495 60 1 C58 3 58 3 55.87695312 3.24291992 C54.59208008 3.23675659 54.59208008 3.23675659 53.28125 3.23046875 C52.34925781 3.22853516 51.41726562 3.22660156 50.45703125 3.22460938 C49.48121094 3.21236328 48.50539062 3.20011719 47.5 3.1875 C46.52417969 3.18685547 45.54835937 3.18621094 44.54296875 3.18554688 C37.28069196 3.14034598 37.28069196 3.14034598 35 2 C34.67 2.66 34.34 3.32 34 4 C32.68 3.67 31.36 3.34 30 3 C29.67 3.99 29.34 4.98 29 6 C28.01 5.67 27.02 5.34 26 5 C26 4.34 26 3.68 26 3 C22.04 3 18.08 3 14 3 C14.66 4.98 15.32 6.96 16 9 C14.29159719 7.36587557 13.06546953 6.13093906 12 4 C10.35 4.66 8.7 5.32 7 6 C7 5.34 7 4.68 7 4 C6.030625 3.71125 5.06125 3.4225 4.0625 3.125 C1 2 1 2 0 0 Z " fill="#B5AC99" transform="translate(24,88)"/>
<path d="M0 0 C0.515625 0.804375 1.03125 1.60875 1.5625 2.4375 C4.63205757 5.66447078 6.64868459 5.74896257 11 6 C10.01 6.495 10.01 6.495 9 7 C9 7.66 9 8.32 9 9 C10.97536745 8.65213292 10.97536745 8.65213292 13 8 C13.33 7.34 13.66 6.68 14 6 C14.66 7.65 15.32 9.3 16 11 C15.505 10.814375 15.01 10.62875 14.5 10.4375 C11.69803867 9.94715677 9.36246588 10.32814194 6.5703125 10.7421875 C1.07250654 11.29363916 -4.48085808 11.06976443 -10 11 C-10 8 -10 8 -8.57421875 6.2109375 C-7.95160156 5.60507813 -7.32898438 4.99921875 -6.6875 4.375 C-6.07261719 3.76398438 -5.45773438 3.15296875 -4.82421875 2.5234375 C-3 1 -3 1 0 0 Z " fill="#050402" transform="translate(22,85)"/>
<path d="M0 0 C0.33 1.65 0.66 3.3 1 5 C1.66 5 2.32 5 3 5 C2.67 3.68 2.34 2.36 2 1 C2.66 1.33 3.32 1.66 4 2 C4 2.66 4 3.32 4 4 C4.66 4.33 5.32 4.66 6 5 C-0.63729312 8.52350129 -6.513226 9.7201206 -14 10 C-14 7.69 -14 5.38 -14 3 C-14.66 3 -15.32 3 -16 3 C-16 4.98 -16 6.96 -16 9 C-16.33 9 -16.66 9 -17 9 C-17 7.02 -17 5.04 -17 3 C-17.66 2.67 -18.32 2.34 -19 2 C-16.39610703 1.66440045 -13.7919239 1.33143142 -11.1875 1 C-10.44951172 0.90460938 -9.71152344 0.80921875 -8.95117188 0.7109375 C-5.94569605 0.33015323 -3.03285559 0 0 0 Z " fill="#1B1812" transform="translate(90,114)"/>
<path d="M0 0 C0.350625 1.134375 0.70125 2.26875 1.0625 3.4375 C1.79385681 5.39305564 1.79385681 5.39305564 3 7 C6.58863524 8.0615942 6.58863524 8.0615942 10 8 C10 8.33 10 8.66 10 9 C-3.86 9.33 -17.72 9.66 -32 10 C-32.33 18.58 -32.66 27.16 -33 36 C-33.33 36 -33.66 36 -34 36 C-34 29.4 -34 22.8 -34 16 C-39.28 16 -44.56 16 -50 16 C-50 15.67 -50 15.34 -50 15 C-44.72 15 -39.44 15 -34 15 C-34 12.69 -34 10.38 -34 8 C-32.329375 7.7834375 -32.329375 7.7834375 -30.625 7.5625 C-27.17857953 7.21627965 -27.17857953 7.21627965 -25 6 C-24.34 6.33 -23.68 6.66 -23 7 C-20.45384991 7.23172827 -17.92603775 7.41894529 -15.375 7.5625 C-14.66859375 7.60568359 -13.9621875 7.64886719 -13.234375 7.69335938 C-11.48981463 7.79944751 -9.74493303 7.90022889 -8 8 C-7.67 7.01 -7.34 6.02 -7 5 C-6.01 5.33 -5.02 5.66 -4 6 C-4 6.66 -4 7.32 -4 8 C-3.01 7.67 -2.02 7.34 -1 7 C-2.32 5.68 -3.64 4.36 -5 3 C-2.25 0 -2.25 0 0 0 Z " fill="#DCD9CC" transform="translate(58,52)"/>
<path d="M0 0 C0.680625 0.70125 1.36125 1.4025 2.0625 2.125 C6.71898245 6.78148245 11.83166065 10.92797506 17 15 C16.360625 14.835 15.72125 14.67 15.0625 14.5 C13.19173179 13.96073333 13.19173179 13.96073333 12 14 C11.34 15.98 10.68 17.96 10 20 C6.10918157 18.70306052 3.51818326 17.29300888 1 14 C1.25 11.75 1.25 11.75 2 10 C3.32 9.67 4.64 9.34 6 9 C4.68 7.68 3.36 6.36 2 5 C-0.475 6.485 -0.475 6.485 -3 8 C-3 7.34 -3 6.68 -3 6 C-3.66 5.34 -4.32 4.68 -5 4 C-4.34 3.34 -3.68 2.68 -3 2 C-2.01 2 -1.02 2 0 2 C0 1.34 0 0.68 0 0 Z " fill="#59564C" transform="translate(40,97)"/>
<path d="M0 0 C0.82638376 2.89234315 1 4.88742431 1 8 C2.98 6.35 4.96 4.7 7 3 C5.125 9.875 5.125 9.875 4 11 C2.07332493 11.08748207 0.14348139 11.10697334 -1.78515625 11.09765625 C-2.95498047 11.09443359 -4.12480469 11.09121094 -5.33007812 11.08789062 C-6.56177734 11.07951172 -7.79347656 11.07113281 -9.0625 11.0625 C-10.91584961 11.05573242 -10.91584961 11.05573242 -12.80664062 11.04882812 C-15.87114117 11.03699608 -18.93554721 11.02051173 -22 11 C-23.06775224 9.03533587 -24.06553465 7.03144641 -25 5 C-24.67 4.34 -24.34 3.68 -24 3 C-23.34644531 3.81855469 -22.69289062 4.63710938 -22.01953125 5.48046875 C-18.06230657 8.78242207 -15.64515571 8.60047821 -10.6875 8.3125 C-9.94693359 8.28994141 -9.20636719 8.26738281 -8.44335938 8.24414062 C-6.62802643 8.1855815 -4.81374319 8.09590886 -3 8 C-2.87625 7.236875 -2.7525 6.47375 -2.625 5.6875 C-2 3 -2 3 0 0 Z " fill="#0E0A05" transform="translate(83,49)"/>
<path d="M0 0 C0.66 0.33 1.32 0.66 2 1 C2.625 4.0625 2.625 4.0625 3 7 C3.95777344 6.67515625 4.91554688 6.3503125 5.90234375 6.015625 C10.45985493 4.71773754 14.85210256 4.7055972 19.5625 4.75 C20.38685547 4.74226563 21.21121094 4.73453125 22.06054688 4.7265625 C26.76967676 4.74161967 30.57435992 5.19244522 35 7 C31.66287593 8.11237469 31.22630951 7.82611385 28 7 C19.10645225 6.45592414 11.40491081 6.91019469 3 10 C1.67094246 10.34999278 0.33866149 10.68875365 -1 11 C-1 10.01 -1 9.02 -1 8 C-1.66 7.34 -2.32 6.68 -3 6 C-2.67 7.32 -2.34 8.64 -2 10 C-3.32 10.33 -4.64 10.66 -6 11 C-7.32 9.35 -8.64 7.7 -10 6 C-8.3811004 4.96951963 -6.75467511 3.95085322 -5.125 2.9375 C-4.22007813 2.36902344 -3.31515625 1.80054687 -2.3828125 1.21484375 C-1.20332031 0.61349609 -1.20332031 0.61349609 0 0 Z " fill="#8E8A7E" transform="translate(54,30)"/>
<path d="M0 0 C2.31 0 4.62 0 7 0 C6.01 1.485 6.01 1.485 5 3 C5.99 3.66 6.98 4.32 8 5 C8.1875 8.125 8.1875 8.125 8 11 C4.7 11 1.4 11 -2 11 C-2 9.35 -2 7.7 -2 6 C-2.66 6 -3.32 6 -4 6 C-4 7.65 -4 9.3 -4 11 C-4.66 11 -5.32 11 -6 11 C-6 8.69 -6 6.38 -6 4 C-4.02 4 -2.04 4 0 4 C0 2.68 0 1.36 0 0 Z " fill="#1B160D" transform="translate(103,62)"/>
<path d="M0 0 C0.66 0 1.32 0 2 0 C1.34 2.64 0.68 5.28 0 8 C1.98 6.35 3.96 4.7 6 3 C6 5.64 6 8.28 6 11 C6.99 9.02 7.98 7.04 9 5 C9.66 5 10.32 5 11 5 C11 7.97 11 10.94 11 14 C5.39576938 14.86218933 2.38048966 12.65492911 -2.046875 9.60546875 C-4 8 -4 8 -6 5 C-4.6875 3.5 -4.6875 3.5 -3 2 C-2.01 2 -1.02 2 0 2 C0 1.34 0 0.68 0 0 Z " fill="#BDB294" transform="translate(59,90)"/>
<path d="M0 0 C-0.99 0.495 -0.99 0.495 -2 1 C-2 2.65 -2 4.3 -2 6 C-2.33 6 -2.66 6 -3 6 C-3 4.35 -3 2.7 -3 1 C-3.66 1 -4.32 1 -5 1 C-5 2.65 -5 4.3 -5 6 C-5.66 5.01 -6.32 4.02 -7 3 C-7.33 3.99 -7.66 4.98 -8 6 C-9.32 6 -10.64 6 -12 6 C-12 4.35 -12 2.7 -12 1 C-12.66 1 -13.32 1 -14 1 C-14 2.98 -14 4.96 -14 7 C-14.99 7 -15.98 7 -17 7 C-19.34210921 7.63514826 -21.67684969 8.2986716 -24 9 C-24.66 7.02 -25.32 5.04 -26 3 C-17.34796755 -0.49409003 -9.15244471 -0.30659554 0 0 Z " fill="#888377" transform="translate(82,26)"/>
<path d="M0 0 C2.375 1.25 2.375 1.25 3.375 4.25 C1.395 5.24 1.395 5.24 -0.625 6.25 C0.035 6.91 0.695 7.57 1.375 8.25 C2.035 8.25 2.695 8.25 3.375 8.25 C4.035 7.59 4.695 6.93 5.375 6.25 C7.025 8.23 8.675 10.21 10.375 12.25 C9.199375 12.435625 9.199375 12.435625 8 12.625 C5.23442178 13.04117993 5.23442178 13.04117993 3.375 15.25 C2.24778564 13.98113036 1.12331342 12.70982438 0 11.4375 C-0.62648438 10.72980469 -1.25296875 10.02210937 -1.8984375 9.29296875 C-4.71456275 5.96076625 -5.625 4.74832434 -5.625 0.25 C-2.625 -0.75 -2.625 -0.75 0 0 Z " fill="#312D27" transform="translate(36.625,94.75)"/>
<path d="M0 0 C2.96175123 0.61277612 4.38058783 1.25372522 7 3 C6.34 4.32 5.68 5.64 5 7 C4.01 7 3.02 7 2 7 C2.66 7.33 3.32 7.66 4 8 C3.34 9.65 2.68 11.3 2 13 C1.4225 12.814375 0.845 12.62875 0.25 12.4375 C-2.22488597 11.95627217 -3.60985476 12.32212267 -6 13 C-3.10933941 3.40546697 -3.10933941 3.40546697 0 0 Z " fill="#39362C" transform="translate(34,47)"/>
<path d="M0 0 C1.65 0.33 3.3 0.66 5 1 C4.67 1.66 4.34 2.32 4 3 C4.99 3.66 5.98 4.32 7 5 C7.1875 8.125 7.1875 8.125 7 11 C3.7 11.33 0.4 11.66 -3 12 C-3 9.36 -3 6.72 -3 4 C-2.34 3.67 -1.68 3.34 -1 3 C-0.67 2.01 -0.34 1.02 0 0 Z " fill="#4C4337" transform="translate(89,62)"/>
<path d="M0 0 C1.44122613 0.59522337 2.87785868 1.20157619 4.3125 1.8125 C5.11300781 2.14894531 5.91351563 2.48539062 6.73828125 2.83203125 C9.00344549 4.00177928 10.41725752 5.01142611 12 7 C12.1875 9.6875 12.1875 9.6875 12 12 C8.35839192 13.21386936 7.66834531 12.6674695 4.3125 11.0625 C3.50425781 10.68222656 2.69601563 10.30195312 1.86328125 9.91015625 C1.24839844 9.60980469 0.63351563 9.30945313 0 9 C0.875 4.25 0.875 4.25 2 2 C1.34 2 0.68 2 0 2 C0 1.34 0 0.68 0 0 Z " fill="#1A150F" transform="translate(50,109)"/>
<path d="M0 0 C0.91007812 0.10183594 1.82015625 0.20367187 2.7578125 0.30859375 C3.45648438 0.39238281 4.15515625 0.47617188 4.875 0.5625 C5.205 3.2025 5.535 5.8425 5.875 8.5625 C4.555 8.5625 3.235 8.5625 1.875 8.5625 C1.215 7.9025 0.555 7.2425 -0.125 6.5625 C-0.785 6.2325 -1.445 5.9025 -2.125 5.5625 C-2.455 6.5525 -2.785 7.5425 -3.125 8.5625 C-3.455 7.9025 -3.785 7.2425 -4.125 6.5625 C-4.785 6.418125 -5.445 6.27375 -6.125 6.125 C-6.785 5.939375 -7.445 5.75375 -8.125 5.5625 C-8.455 4.5725 -8.785 3.5825 -9.125 2.5625 C-8.465 2.5625 -7.805 2.5625 -7.125 2.5625 C-7.125 1.9025 -7.125 1.2425 -7.125 0.5625 C-4.50184968 -0.74907516 -2.89466564 -0.33399988 0 0 Z " fill="#322D26" transform="translate(70.125,104.4375)"/>
<path d="M0 0 C4.62 2.31 9.24 4.62 14 7 C13.67 7.99 13.34 8.98 13 10 C13.66 10.33 14.32 10.66 15 11 C14.01 12.485 14.01 12.485 13 14 C12.34 14 11.68 14 11 14 C11 13.34 11 12.68 11 12 C10.34 12 9.68 12 9 12 C9 11.01 9 10.02 9 9 C8.01 9.495 8.01 9.495 7 10 C6.67 9.34 6.34 8.68 6 8 C5.01 8.33 4.02 8.66 3 9 C2.34 8.67 1.68 8.34 1 8 C1 6.68 1 5.36 1 4 C0.67 4.99 0.34 5.98 0 7 C-0.66 7 -1.32 7 -2 7 C-1.34 4.69 -0.68 2.38 0 0 Z " fill="#716D66" transform="translate(89,28)"/>
<path d="M0 0 C2.875 -0.125 2.875 -0.125 6 0 C6.66 0.66 7.32 1.32 8 2 C7.625 4.125 7.625 4.125 7 6 C5.68 6.33 4.36 6.66 3 7 C3 7.99 3 8.98 3 10 C2.01 10.33 1.02 10.66 0 11 C-1.20882096 13.00016466 -1.20882096 13.00016466 -2 15 C-2.99 14.34 -3.98 13.68 -5 13 C-4.67 11.68 -4.34 10.36 -4 9 C-3.34 9 -2.68 9 -2 9 C-1.34 6.03 -0.68 3.06 0 0 Z " fill="#A19C88" transform="translate(37,63)"/>
<path d="M0 0 C0.33 0.66 0.66 1.32 1 2 C3.52733235 2.65555119 3.52733235 2.65555119 6 3 C4.63981615 6.97483779 2.86828717 9.63594199 0.0625 12.75 C-0.62714844 13.52859375 -1.31679687 14.3071875 -2.02734375 15.109375 C-4 17 -4 17 -7 18 C-7.66 16.35 -8.32 14.7 -9 13 C-8.01 13.33 -7.02 13.66 -6 14 C-6 13.01 -6 12.02 -6 11 C-5.01 11.66 -4.02 12.32 -3 13 C-3 12.34 -3 11.68 -3 11 C-2.34 10.67 -1.68 10.34 -1 10 C-2.32 9.01 -3.64 8.02 -5 7 C-4.34 5.68 -3.68 4.36 -3 3 C-0.525 3.99 -0.525 3.99 2 5 C1.67 4.67 1.34 4.34 1 4 C0.63837971 2.67405895 0.30271961 1.34061543 0 0 Z " fill="#3B3832" transform="translate(111,95)"/>
<path d="M0 0 C0.33 0 0.66 0 1 0 C1.33 1.65 1.66 3.3 2 5 C5.96 5 9.92 5 14 5 C14.66 3.68 15.32 2.36 16 1 C16.66 3.31 17.32 5.62 18 8 C14.30581799 9.231394 11.7943739 8.64432764 8 8 C11.37462715 8.54723683 13.08235 9.0549 16 11 C14.22925083 11.02705729 12.45838289 11.04642195 10.6875 11.0625 C9.70136719 11.07410156 8.71523438 11.08570312 7.69921875 11.09765625 C5 11 5 11 2 10 C2 9.34 2 8.68 2 8 C1.34 8 0.68 8 0 8 C-1.09658936 4.71023192 -0.79953138 3.28696233 0 0 Z " fill="#1E120B" transform="translate(51,78)"/>
<path d="M0 0 C0.66 0 1.32 0 2 0 C2 1.65 2 3.3 2 5 C3.32 4.67 4.64 4.34 6 4 C7.25 6.5625 7.25 6.5625 8 10 C6.97381014 12.65010886 5.61515439 14.62477296 4 17 C1.23776722 14.23776722 1.42143709 11.79293383 1 8 C-0.32 7.67 -1.64 7.34 -3 7 C-2.34 6.67 -1.68 6.34 -1 6 C-0.34227572 2.97065509 -0.34227572 2.97065509 0 0 Z " fill="#0A0402" transform="translate(65,68)"/>
<path d="M0 0 C4.95 0 9.9 0 15 0 C14.67 0.66 14.34 1.32 14 2 C12.02 2 10.04 2 8 2 C7.67 2.66 7.34 3.32 7 4 C4.9375 4.625 4.9375 4.625 3 5 C3 6.65 3 8.3 3 10 C1.35 10.33 -0.3 10.66 -2 11 C-2.22786458 8.98177083 -2.45572917 6.96354167 -2.68359375 4.9453125 C-2.91292961 2.92595684 -2.91292961 2.92595684 -4 1 C-2.68 1.33 -1.36 1.66 0 2 C0 1.34 0 0.68 0 0 Z " fill="#0D0906" transform="translate(47,62)"/>
<path d="M0 0 C0.66 1.32 1.32 2.64 2 4 C2.66 4 3.32 4 4 4 C4.33 3.34 4.66 2.68 5 2 C5 2.99 5 3.98 5 5 C-9.85 5 -24.7 5 -40 5 C-40 4.67 -40 4.34 -40 4 C-38.81921875 3.95101562 -37.6384375 3.90203125 -36.421875 3.8515625 C-34.86456063 3.77651121 -33.30727009 3.70096439 -31.75 3.625 C-30.97269531 3.5940625 -30.19539063 3.563125 -29.39453125 3.53125 C-23.92620093 3.27341758 -23.92620093 3.27341758 -19 1 C-18.34 1.66 -17.68 2.32 -17 3 C-13.74742036 3.35906894 -13.74742036 3.35906894 -10.0625 3.3125 C-8.81597656 3.32925781 -7.56945312 3.34601562 -6.28515625 3.36328125 C-3.02538445 3.29436281 -3.02538445 3.29436281 -1.05859375 1.48046875 C-0.53458984 0.74763672 -0.53458984 0.74763672 0 0 Z " fill="#E4DAC4" transform="translate(116,56)"/>
<path d="M0 0 C1.32 0 2.64 0 4 0 C4 1.98 4 3.96 4 6 C6.97 6.495 6.97 6.495 10 7 C10 7.33 10 7.66 10 8 C9.0821875 8.04898438 8.164375 8.09796875 7.21875 8.1484375 C0.57135914 8.5534256 -5.61387859 9.08416358 -12 11 C-12.33 8.36 -12.66 5.72 -13 3 C-12.34 3 -11.68 3 -11 3 C-10.67 4.65 -10.34 6.3 -10 8 C-9.34 8 -8.68 8 -8 8 C-7.67 7.34 -7.34 6.68 -7 6 C-6.01 6 -5.02 6 -4 6 C-3.67 4.35 -3.34 2.7 -3 1 C-2.34 2.32 -1.68 3.64 -1 5 C-0.67 3.35 -0.34 1.7 0 0 Z " fill="#252017" transform="translate(68,27)"/>
<path d="M0 0 C0.66 0 1.32 0 2 0 C3.37482707 1.63260714 4.70647667 3.30225062 6 5 C6.66 5.66 7.32 6.32 8 7 C6.75539217 7.67667998 5.50403104 8.34094719 4.25 9 C3.20585938 9.556875 3.20585938 9.556875 2.140625 10.125 C0 11 0 11 -4 11 C-4 8.36 -4 5.72 -4 3 C-2.68 4.32 -1.36 5.64 0 7 C0 5.68 0 4.36 0 3 C0 2.01 0 1.02 0 0 Z " fill="#DCCEB3" transform="translate(83,93)"/>
<path d="M0 0 C1.32 0 2.64 0 4 0 C4 0.66 4 1.32 4 2 C3.01 2.33 2.02 2.66 1 3 C1.99 3.99 2.98 4.98 4 6 C3.25 8.9375 3.25 8.9375 2 12 C-0.18096612 12.95417268 -1.64182234 13 -4 13 C-5.0169313 10.34501768 -5.13022151 9.30844625 -4.00390625 6.640625 C-3.52824219 5.85171875 -3.05257812 5.0628125 -2.5625 4.25 C-2.08941406 3.45078125 -1.61632812 2.6515625 -1.12890625 1.828125 C-0.75636719 1.22484375 -0.38382812 0.6215625 0 0 Z " fill="#734F37" transform="translate(79,72)"/>
<path d="M0 0 C0.350625 1.134375 0.70125 2.26875 1.0625 3.4375 C1.79385681 5.39305564 1.79385681 5.39305564 3 7 C6.58863524 8.0615942 6.58863524 8.0615942 10 8 C10 8.33 10 8.66 10 9 C3.73 9 -2.54 9 -9 9 C-8.34 7.68 -7.68 6.36 -7 5 C-6.01 5.33 -5.02 5.66 -4 6 C-4 6.66 -4 7.32 -4 8 C-3.01 7.67 -2.02 7.34 -1 7 C-2.32 5.68 -3.64 4.36 -5 3 C-2.25 0 -2.25 0 0 0 Z " fill="#DED4B5" transform="translate(58,52)"/>
<path d="M0 0 C0.886875 0.144375 1.77375 0.28875 2.6875 0.4375 C2.3575 1.365625 2.0275 2.29375 1.6875 3.25 C0.53782996 6.35779291 0.53782996 6.35779291 0.6875 9.4375 C-3.7675 8.4475 -3.7675 8.4475 -8.3125 7.4375 C-4.12788462 0.54519231 -4.12788462 0.54519231 0 0 Z " fill="#774C33" transform="translate(96.3125,76.5625)"/>
<path d="M0 0 C8.25 0.66 16.5 1.32 25 2 C25 2.33 25 2.66 25 3 C21.37 3 17.74 3 14 3 C14.66 4.98 15.32 6.96 16 9 C14.29159719 7.36587557 13.06546953 6.13093906 12 4 C10.35 4.66 8.7 5.32 7 6 C7 5.34 7 4.68 7 4 C6.030625 3.71125 5.06125 3.4225 4.0625 3.125 C1 2 1 2 0 0 Z " fill="#9B9689" transform="translate(24,88)"/>
<path d="M0 0 C1.4540625 0.0309375 1.4540625 0.0309375 2.9375 0.0625 C3.1328125 6.1171875 3.1328125 6.1171875 2.9375 8.0625 C2.2775 8.7225 1.6175 9.3825 0.9375 10.0625 C-1.1875 9.6875 -1.1875 9.6875 -3.0625 9.0625 C-1.7425 8.7325 -0.4225 8.4025 0.9375 8.0625 C-1.5375 7.0725 -1.5375 7.0725 -4.0625 6.0625 C-4.105221 4.39638095 -4.10313832 2.72867115 -4.0625 1.0625 C-3.0625 0.0625 -3.0625 0.0625 0 0 Z " fill="#C1B9A3" transform="translate(82.0625,65.9375)"/>
<path d="M0 0 C1.125 3.75 1.125 3.75 0 6 C0.66 6 1.32 6 2 6 C2.33 4.02 2.66 2.04 3 0 C3.66 0 4.32 0 5 0 C4.34 2.31 3.68 4.62 3 7 C3.66 7 4.32 7 5 7 C5.33 5.68 5.66 4.36 6 3 C6.33 3.99 6.66 4.98 7 6 C6.67 6.66 6.34 7.32 6 8 C7.98 7.67 9.96 7.34 12 7 C11.67 8.32 11.34 9.64 11 11 C11.66 11.33 12.32 11.66 13 12 C8.15311808 11.21824485 3.6233633 9.60155722 -1 8 C-1.125 2.25 -1.125 2.25 0 0 Z " fill="#130E09" transform="translate(84,28)"/>
<path d="M0 0 C0.33 0.66 0.66 1.32 1 2 C1.66 2.33 2.32 2.66 3 3 C5 4 5 4 6 6 C5.01 6 4.02 6 3 6 C3 6.66 3 7.32 3 8 C2.01 8 1.02 8 0 8 C0 8.99 0 9.98 0 11 C-0.598125 10.34 -1.19625 9.68 -1.8125 9 C-3.87501834 6.6626154 -3.87501834 6.6626154 -7 7 C-4.69 4.69 -2.38 2.38 0 0 Z " fill="#7C796F" transform="translate(105,100)"/>
<path d="M0 0 C0.99 0 1.98 0 3 0 C3 0.66 3 1.32 3 2 C5.475 2.99 5.475 2.99 8 4 C7.67 2.68 7.34 1.36 7 0 C8.65 0 10.3 0 12 0 C10.68775452 3.93673644 9.08089673 6.22719294 6 9 C3 8 3 8 2.05078125 6.15234375 C1.80714844 5.42144531 1.56351562 4.69054687 1.3125 3.9375 C1.06113281 3.20402344 0.80976562 2.47054687 0.55078125 1.71484375 C0.36902344 1.14894531 0.18726562 0.58304687 0 0 Z " fill="#D6CBAE" transform="translate(87,90)"/>
<path d="M0 0 C1.85776765 3.13498292 2.20140476 5.37471432 2 9 C-1.81489674 10.46726798 -4.29011622 9.43336419 -8 8 C-7.67 7.01 -7.34 6.02 -7 5 C-7 5.66 -7 6.32 -7 7 C-6.01 7 -5.02 7 -4 7 C-4 5.35 -4 3.7 -4 2 C-5.32 2.33 -6.64 2.66 -8 3 C-7 1 -7 1 -5.125 0.375 C-3 0 -3 0 0 0 Z " fill="#7C7566" transform="translate(54,65)"/>
<path d="M0 0 C0.66 0.66 1.32 1.32 2 2 C2.99 2 3.98 2 5 2 C5 2.33 5 2.66 5 3 C5.66 3 6.32 3 7 3 C7 3.99 7 4.98 7 6 C7.66 6.33 8.32 6.66 9 7 C8.67 7.99 8.34 8.98 8 10 C8.39397335 12.63804589 8.39397335 12.63804589 9 15 C5.07265789 11.22975157 1.55593839 7.11529949 -2 3 C-1.34 2.01 -0.68 1.02 0 0 Z " fill="#1B1710" transform="translate(102,41)"/>
<path d="M0 0 C1.47906892 -0.02689216 2.95827483 -0.04634621 4.4375 -0.0625 C5.26121094 -0.07410156 6.08492188 -0.08570312 6.93359375 -0.09765625 C9 0 9 0 10 1 C10.04080783 2.99958364 10.04254356 5.00045254 10 7 C9.34 7 8.68 7 8 7 C8 5.35 8 3.7 8 2 C7.34 2 6.68 2 6 2 C6 3.65 6 5.3 6 7 C5.34 7 4.68 7 4 7 C4 5.35 4 3.7 4 2 C3.34 2 2.68 2 2 2 C2 3.65 2 5.3 2 7 C1.34 7 0.68 7 0 7 C0 4.69 0 2.38 0 0 Z " fill="#C5BDA9" transform="translate(59,66)"/>
<path d="M0 0 C2.64 1.98 5.28 3.96 8 6 C6.3125 8.0625 6.3125 8.0625 4 10 C1.25 9.75 1.25 9.75 -1 9 C-0.67 6.03 -0.34 3.06 0 0 Z " fill="#CDC3A6" transform="translate(89,50)"/>
<path d="M0 0 C0 0.99 0 1.98 0 3 C-0.680625 3.165 -1.36125 3.33 -2.0625 3.5 C-8.27239998 6.67101276 -12.31975348 12.69353759 -15 19 C-15.66 18.67 -16.32 18.34 -17 18 C-16.34 16.68 -15.68 15.36 -15 14 C-17.475 13.01 -17.475 13.01 -20 12 C-17.50907189 10.75453595 -16.58919267 11.2232422 -14 12 C-13.38511719 11.30132812 -12.77023438 10.60265625 -12.13671875 9.8828125 C-11.32847656 8.97273438 -10.52023438 8.06265625 -9.6875 7.125 C-8.88699219 6.22007813 -8.08648437 5.31515625 -7.26171875 4.3828125 C-3.10163934 0 -3.10163934 0 0 0 Z " fill="#8D887E" transform="translate(53,41)"/>
<path d="M0 0 C0.33 0 0.66 0 1 0 C1 3.3 1 6.6 1 10 C-0.65 10 -2.3 10 -4 10 C-5 9 -5 9 -5.0625 5.9375 C-5.041875 4.968125 -5.02125 3.99875 -5 3 C-3.35 3 -1.7 3 0 3 C0 2.01 0 1.02 0 0 Z " fill="#A79F8D" transform="translate(57,74)"/>
<path d="M0 0 C2.64 0 5.28 0 8 0 C10 6.875 10 6.875 10 8 C8.35 8 6.7 8 5 8 C5 5.69 5 3.38 5 1 C4.34 1 3.68 1 3 1 C3 2.98 3 4.96 3 7 C2.67 7 2.34 7 2 7 C2 5.02 2 3.04 2 1 C1.34 0.67 0.68 0.34 0 0 Z " fill="#686357" transform="translate(71,116)"/>
<path d="M0 0 C2.375 1.25 2.375 1.25 3.375 4.25 C1.02061267 5.67944945 -0.10532433 6.33661261 -2.875 5.875 C-3.4525 5.66875 -4.03 5.4625 -4.625 5.25 C-4.955 3.6 -5.285 1.95 -5.625 0.25 C-2.625 -0.75 -2.625 -0.75 0 0 Z " fill="#231F18" transform="translate(36.625,94.75)"/>
<path d="M0 0 C8.25 0 16.5 0 25 0 C25 0.33 25 0.66 25 1 C17.08 1 9.16 1 1 1 C1.33 1.99 1.66 2.98 2 4 C0.35 5.65 -1.3 7.3 -3 9 C-3.66 8.67 -4.32 8.34 -5 8 C-4.360625 7.236875 -3.72125 6.47375 -3.0625 5.6875 C-0.85767219 3.11753287 -0.85767219 3.11753287 0 0 Z " fill="#E8E8E7" transform="translate(117,97)"/>
<path d="M0 0 C0.66 0 1.32 0 2 0 C1.690625 0.721875 1.38125 1.44375 1.0625 2.1875 C-0.07998256 4.90797695 -0.07998256 4.90797695 -0.375 7.5625 C-1.24478681 10.95466857 -2.01598414 12.10769726 -5 14 C-8.4001553 14.03202658 -11.6557561 13.58715733 -15 13 C-15 12.34 -15 11.68 -15 11 C-12.03 11 -9.06 11 -6 11 C-5.65066406 10.28972656 -5.30132812 9.57945313 -4.94140625 8.84765625 C-4.48636719 7.92855469 -4.03132813 7.00945312 -3.5625 6.0625 C-3.11003906 5.14597656 -2.65757813 4.22945313 -2.19140625 3.28515625 C-1 1 -1 1 0 0 Z " fill="#9A7154" transform="translate(74,75)"/>
<path d="M0 0 C-0.33 0.99 -0.66 1.98 -1 3 C-0.12085312 5.6569191 -0.12085312 5.6569191 1 8 C-0.32 8 -1.64 8 -3 8 C-3.33 7.67 -3.66 7.34 -4 7 C-4 7.66 -4 8.32 -4 9 C-4.66 9 -5.32 9 -6 9 C-6.66 7.02 -7.32 5.04 -8 3 C-2.25 0 -2.25 0 0 0 Z " fill="#545048" transform="translate(97,110)"/>
<path d="M0 0 C1.65 0 3.3 0 5 0 C5.33 2.64 5.66 5.28 6 8 C5.01 8 4.02 8 3 8 C3 8.99 3 9.98 3 11 C1.68 10.67 0.36 10.34 -1 10 C-0.01 10 0.98 10 2 10 C1.34 9.01 0.68 8.02 0 7 C-0.07905064 4.66800612 -0.08798769 2.33167378 0 0 Z " fill="#676053" transform="translate(54,66)"/>
<path d="M0 0 C3.26008643 3.16952847 6.22237877 6.39937989 9 10 C6.11562221 8.70700306 4.12780579 7.34058637 2 5 C-0.475 6.485 -0.475 6.485 -3 8 C-3 7.34 -3 6.68 -3 6 C-3.66 5.34 -4.32 4.68 -5 4 C-4.34 3.34 -3.68 2.68 -3 2 C-2.01 2 -1.02 2 0 2 C0 1.34 0 0.68 0 0 Z " fill="#8A867D" transform="translate(40,97)"/>
<path d="M0 0 C4.75 0.875 4.75 0.875 7 2 C7 2.66 7 3.32 7 4 C6.34 4 5.68 4 5 4 C5 4.66 5 5.32 5 6 C3.68 5.67 2.36 5.34 1 5 C1.66 6.32 2.32 7.64 3 9 C0.525 8.01 0.525 8.01 -2 7 C-1.125 2.25 -1.125 2.25 0 0 Z " fill="#6B655C" transform="translate(111,92)"/>
<path d="M0 0 C4.95 0.99 4.95 0.99 10 2 C10 2.33 10 2.66 10 3 C8.35 3 6.7 3 5 3 C4.67 4.32 4.34 5.64 4 7 C4.66 7 5.32 7 6 7 C6.33 6.34 6.66 5.68 7 5 C7 5.99 7 6.98 7 8 C7.66 8 8.32 8 9 8 C9.33 7.01 9.66 6.02 10 5 C10.33 6.32 10.66 7.64 11 9 C8.36 9 5.72 9 3 9 C1.99290115 6.9858023 1.52871824 5.18096274 1 3 C0.67 2.01 0.34 1.02 0 0 Z " fill="#1A1610" transform="translate(59,114)"/>
<path d="M0 0 C1.65 0.33 3.3 0.66 5 1 C5 1.66 5 2.32 5 3 C5.66 3 6.32 3 7 3 C6.34 4.98 5.68 6.96 5 9 C2.525 8.01 2.525 8.01 0 7 C0 6.01 0 5.02 0 4 C-0.33 3.34 -0.66 2.68 -1 2 C-0.67 1.34 -0.34 0.68 0 0 Z " fill="#747064" transform="translate(45,108)"/>
<path d="M0 0 C1.66611905 -0.042721 3.33382885 -0.04063832 5 0 C6 1 6 1 6.0625 4.0625 C6.041875 5.031875 6.02125 6.00125 6 7 C4.02 7 2.04 7 0 7 C0 5.68 0 4.36 0 3 C0.99 3 1.98 3 3 3 C2.01 2.67 1.02 2.34 0 2 C0 1.34 0 0.68 0 0 Z " fill="#AFA891" transform="translate(90,66)"/>
<path d="M0 0 C1.67542976 0.28604898 3.34385343 0.61781233 5 1 C5 2.65 5 4.3 5 6 C3.34385343 6.38218767 1.67542976 6.71395102 0 7 C-1 6 -1 6 -1.125 3.5 C-1 1 -1 1 0 0 Z " fill="#9E9381" transform="translate(61,77)"/>
<path d="M0 0 C0.33 1.98 0.66 3.96 1 6 C-0.98 6.33 -2.96 6.66 -5 7 C-5.66 5.02 -6.32 3.04 -7 1 C-4 0 -4 0 0 0 Z " fill="#605D51" transform="translate(63,28)"/>
<path d="M0 0 C2.475 0.99 2.475 0.99 5 2 C2.89851796 5.98175544 0.63094642 8.35039045 -3 11 C-3.99 10.01 -4.98 9.02 -6 8 C-5.67 7.34 -5.34 6.68 -5 6 C-4.67 6 -4.34 6 -4 6 C-3.67 5.34 -3.34 4.68 -3 4 C-2.01 4.66 -1.02 5.32 0 6 C0 5.34 0 4.68 0 4 C0.66 3.67 1.32 3.34 2 3 C1.34 2.01 0.68 1.02 0 0 Z " fill="#18150F" transform="translate(108,102)"/>
<path d="M0 0 C2.625 0.375 2.625 0.375 5 1 C5 1.99 5 2.98 5 4 C4.01 4.495 4.01 4.495 3 5 C3.66 5.33 4.32 5.66 5 6 C4 7 4 7 1.4375 7.0625 C0.2309375 7.0315625 0.2309375 7.0315625 -1 7 C-1.625 4.625 -1.625 4.625 -2 2 C-1.34 1.34 -0.68 0.68 0 0 Z " fill="#B8AE9B" transform="translate(72,66)"/>
<path d="M0 0 C1.66611905 -0.042721 3.33382885 -0.04063832 5 0 C6 1 6 1 6.0625 4.0625 C6.041875 5.031875 6.02125 6.00125 6 7 C4.02 7 2.04 7 0 7 C0 5.68 0 4.36 0 3 C1.32 3 2.64 3 4 3 C4 2.34 4 1.68 4 1 C2.68 1.33 1.36 1.66 0 2 C0 1.34 0 0.68 0 0 Z " fill="#B9B19E" transform="translate(105,66)"/>
<path d="M0 0 C3.91402949 1.26941497 5.79072873 2.51167694 8 6 C5.36 6.66 2.72 7.32 0 8 C0.33 6.35 0.66 4.7 1 3 C0.01 2.67 -0.98 2.34 -2 2 C-1.34 1.34 -0.68 0.68 0 0 Z " fill="#413D37" transform="translate(102,36)"/>
<path d="M0 0 C0.66 0 1.32 0 2 0 C0.375 6.75 0.375 6.75 -3 9 C-3.99 7.68 -4.98 6.36 -6 5 C-4.6875 3.5 -4.6875 3.5 -3 2 C-2.01 2 -1.02 2 0 2 C0 1.34 0 0.68 0 0 Z " fill="#E0D3B3" transform="translate(59,90)"/>
<path d="M0 0 C1.38294718 0.01329757 2.76582404 0.03715018 4.1484375 0.0703125 C4.85484375 0.07933594 5.56125 0.08835937 6.2890625 0.09765625 C8.03399848 0.12123647 9.77876045 0.15710789 11.5234375 0.1953125 C11.5234375 0.5253125 11.5234375 0.8553125 11.5234375 1.1953125 C9.8734375 1.1953125 8.2234375 1.1953125 6.5234375 1.1953125 C6.8534375 2.5153125 7.1834375 3.8353125 7.5234375 5.1953125 C5.0484375 4.2053125 5.0484375 4.2053125 2.5234375 3.1953125 C2.5234375 2.5353125 2.5234375 1.8753125 2.5234375 1.1953125 C-0.1165625 1.5253125 -2.7565625 1.8553125 -5.4765625 2.1953125 C-3.4765625 0.1953125 -3.4765625 0.1953125 0 0 Z " fill="#89806E" transform="translate(87.4765625,88.8046875)"/>
<path d="M0 0 C2.0625 0.4375 2.0625 0.4375 4 1 C3.65120368 4.25543229 2.97866739 5.01873107 0.4375 7.25 C-0.7690625 8.11625 -0.7690625 8.11625 -2 9 C-1.125 1.125 -1.125 1.125 0 0 Z " fill="#D2C8AF" transform="translate(85,49)"/>
<path d="M0 0 C0.66 0 1.32 0 2 0 C2 2.97 2 5.94 2 9 C0.35 8.67 -1.3 8.34 -3 8 C-1.125 2.25 -1.125 2.25 0 0 Z " fill="#E2D4B1" transform="translate(68,95)"/>
<path d="M0 0 C0.99 0.33 1.98 0.66 3 1 C2.34 1.66 1.68 2.32 1 3 C0.67 3.66 0.34 4.32 0 5 C-3.37761601 9.77525023 -3.37761601 9.77525023 -6.25 10.8125 C-6.8275 10.874375 -7.405 10.93625 -8 11 C-8 10.01 -8 9.02 -8 8 C-6.36395804 6.62926214 -4.69321939 5.29944744 -3 4 C-1.23676495 1.87396815 -1.23676495 1.87396815 0 0 Z " fill="#160F08" transform="translate(99,91)"/>
<path d="M0 0 C1.98 0 3.96 0 6 0 C6 2.31 6 4.62 6 7 C5.34 7 4.68 7 4 7 C4 5.35 4 3.7 4 2 C3.34 2 2.68 2 2 2 C2 3.65 2 5.3 2 7 C1.34 7 0.68 7 0 7 C0 4.69 0 2.38 0 0 Z " fill="#C0B8A9" transform="translate(97,66)"/>
<path d="M0 0 C0.99 0.33 1.98 0.66 3 1 C3.33 3.64 3.66 6.28 4 9 C1.69 7.02 -0.62 5.04 -3 3 C-2.01 2.01 -1.02 1.02 0 0 Z " fill="#D8CCAC" transform="translate(61,49)"/>
<path d="M0 0 C1.32 0 2.64 0 4 0 C4 2.97 4 5.94 4 9 C3.34 9 2.68 9 2 9 C0.4375 6.1875 0.4375 6.1875 -1 3 C-0.67 2.01 -0.34 1.02 0 0 Z " fill="#D6CBAF" transform="translate(66,47)"/>
<path d="M0 0 C0 1.98 0 3.96 0 6 C-0.33 6 -0.66 6 -1 6 C-1 4.35 -1 2.7 -1 1 C-1.66 1 -2.32 1 -3 1 C-3 2.98 -3 4.96 -3 7 C-3.99 7 -4.98 7 -6 7 C-8 4 -8 4 -9 1 C-5.92677456 0.08941469 -3.19902639 -0.08886184 0 0 Z " fill="#948D80" transform="translate(71,26)"/>
<path d="M0 0 C0.33 0.66 0.66 1.32 1 2 C0.67 2.66 0.34 3.32 0 4 C0.66 4 1.32 4 2 4 C2.33 4.99 2.66 5.98 3 7 C-2.07612318 7.61528766 -4.82982006 5.61658349 -9 3 C-6 2 -6 2 -3 3 C-2.67 2.34 -2.34 1.68 -2 1 C-1.34 0.67 -0.68 0.34 0 0 Z " fill="#4F4B45" transform="translate(98,36)"/>
<path d="M0 0 C0.33 1.32 0.66 2.64 1 4 C-1.64 4.66 -4.28 5.32 -7 6 C-7 4.35 -7 2.7 -7 1 C-4.53721199 -0.231394 -2.7204945 -0.07159196 0 0 Z " fill="#8B8880" transform="translate(89,116)"/>
<path d="M0 0 C0.99 0.66 1.98 1.32 3 2 C3 2.66 3 3.32 3 4 C2.34 4 1.68 4 1 4 C1 4.66 1 5.32 1 6 C0.01 6.33 -0.98 6.66 -2 7 C-2.433125 5.824375 -2.433125 5.824375 -2.875 4.625 C-3.84912254 1.90328368 -3.84912254 1.90328368 -6 0 C-2.25 -1.125 -2.25 -1.125 0 0 Z " fill="#6B6459" transform="translate(85,104)"/>
<path d="M0 0 C0.66 0 1.32 0 2 0 C4.03435531 3.72965139 5 5.66905042 5 10 C4.34 10 3.68 10 3 10 C2.87625 9.360625 2.7525 8.72125 2.625 8.0625 C2.41875 7.381875 2.2125 6.70125 2 6 C1.34 5.67 0.68 5.34 0 5 C0.33 4.34 0.66 3.68 1 3 C-0.32 3.33 -1.64 3.66 -3 4 C-2.67 3.34 -2.34 2.68 -2 2 C-1.34 2 -0.68 2 0 2 C0 1.34 0 0.68 0 0 Z " fill="#1F1B15" transform="translate(115,50)"/>
<path d="M0 0 C1.98 0 3.96 0 6 0 C5.34 2.64 4.68 5.28 4 8 C3.34 8 2.68 8 2 8 C1.34 5.36 0.68 2.72 0 0 Z " fill="#D8CDAF" transform="translate(71,46)"/>
<path d="M0 0 C1.65 0 3.3 0 5 0 C5.99 2.64 6.98 5.28 8 8 C3.79373966 6.49776416 2.26099979 3.71449966 0 0 Z " fill="#2C2717" transform="translate(83,91)"/>
<path d="M0 0 C0.99 0.33 1.98 0.66 3 1 C2.34 1 1.68 1 1 1 C1 3.64 1 6.28 1 9 C-0.65 9.33 -2.3 9.66 -4 10 C-4 9.34 -4 8.68 -4 8 C-3.34 8 -2.68 8 -2 8 C-1.7834375 6.576875 -1.7834375 6.576875 -1.5625 5.125 C-1 2 -1 2 0 0 Z " fill="#30291E" transform="translate(77,46)"/>
<path d="M0 0 C1.37562854 1.28965176 2.70766393 2.62689293 4 4 C4 4.66 4 5.32 4 6 C2.68 6 1.36 6 0 6 C-0.33 5.67 -0.66 5.34 -1 5 C-3.05396726 5.40929986 -3.05396726 5.40929986 -5 6 C-3.35 4.02 -1.7 2.04 0 0 Z " fill="#45423A" transform="translate(43,37)"/>
<path d="M0 0 C1.32 0.33 2.64 0.66 4 1 C4 2.65 4 4.3 4 6 C3.01 6.33 2.02 6.66 1 7 C0.01 6.34 -0.98 5.68 -2 5 C-1.34 3.35 -0.68 1.7 0 0 Z " fill="#706D65" transform="translate(58,115)"/>
<path d="M0 0 C1.65 0 3.3 0 5 0 C5 1.32 5 2.64 5 4 C4.01 4.495 4.01 4.495 3 5 C3.33 5.66 3.66 6.32 4 7 C2.0625 6.6875 2.0625 6.6875 0 6 C-1 3 -1 3 0 0 Z " fill="#555145" transform="translate(111,53)"/>
<path d="M0 0 C0.66 0.33 1.32 0.66 2 1 C2.75 3.9375 2.75 3.9375 3 7 C2.34 7.66 1.68 8.32 1 9 C0.71125 8.030625 0.4225 7.06125 0.125 6.0625 C-0.64214682 2.89335797 -0.64214682 2.89335797 -3 2 C-2.01 1.34 -1.02 0.68 0 0 Z " fill="#4A483E" transform="translate(54,30)"/>
<path d="M0 0 C0.66 0.66 1.32 1.32 2 2 C2.66 1.67 3.32 1.34 4 1 C3.34 2.98 2.68 4.96 2 7 C-0.475 6.01 -0.475 6.01 -3 5 C-2.01 3.35 -1.02 1.7 0 0 Z " fill="#777269" transform="translate(53,113)"/>
<path d="M0 0 C1.125 1.75 1.125 1.75 2 4 C1.125 6.25 1.125 6.25 0 8 C-0.99 7.34 -1.98 6.68 -3 6 C-2.67 4.68 -2.34 3.36 -2 2 C-1.34 2 -0.68 2 0 2 C0 1.34 0 0.68 0 0 Z " fill="#646052" transform="translate(35,70)"/>
<path d="M0 0 C0 1.65 0 3.3 0 5 C-1.65 5.33 -3.3 5.66 -5 6 C-5.33 4.35 -5.66 2.7 -6 1 C-3.92446352 0.4465236 -2.15634036 0 0 0 Z " fill="#4B4434" transform="translate(50,67)"/>
<path d="M0 0 C2.31 1.98 4.62 3.96 7 6 C6.67 6.66 6.34 7.32 6 8 C4.68 7.67 3.36 7.34 2 7 C1.34 4.69 0.68 2.38 0 0 Z " fill="#170F05" transform="translate(58,52)"/>
<path d="M0 0 C1.65 0.33 3.3 0.66 5 1 C4.67 2.32 4.34 3.64 4 5 C2.68 5.33 1.36 5.66 0 6 C0.66 4.68 1.32 3.36 2 2 C0.02 2.99 0.02 2.99 -2 4 C-1.34 2.68 -0.68 1.36 0 0 Z " fill="#827E74" transform="translate(107,42)"/>
<path d="M0 0 C2 0.25 2 0.25 4 1 C4.33 1.99 4.66 2.98 5 4 C5.66 4.33 6.32 4.66 7 5 C5.68 5.33 4.36 5.66 3 6 C1.68 4.35 0.36 2.7 -1 1 C-0.67 0.67 -0.34 0.34 0 0 Z " fill="#57554B" transform="translate(45,35)"/>
<path d="M0 0 C0.66 0 1.32 0 2 0 C2.33 1.65 2.66 3.3 3 5 C3.66 5 4.32 5 5 5 C5.33 4.34 5.66 3.68 6 3 C6 4.32 6 5.64 6 7 C4.35 7.33 2.7 7.66 1 8 C0.67 5.36 0.34 2.72 0 0 Z " fill="#110F07" transform="translate(55,30)"/>
<path d="M0 0 C0.99 0.33 1.98 0.66 3 1 C1.02 3.31 -0.96 5.62 -3 8 C-3.33 7.01 -3.66 6.02 -4 5 C-2.0625 2.3125 -2.0625 2.3125 0 0 Z " fill="#110D0A" transform="translate(101,100)"/>
<path d="M0 0 C0.99 0.33 1.98 0.66 3 1 C2.01 1.66 1.02 2.32 0 3 C-0.2236068 5.9254644 -0.2236068 5.9254644 1 8 C-1.97 7.505 -1.97 7.505 -5 7 C-3.35 4.69 -1.7 2.38 0 0 Z " fill="#A87458" transform="translate(93,77)"/>
<path d="M0 0 C1.32 0 2.64 0 4 0 C4 1.65 4 3.3 4 5 C2.68 4.67 1.36 4.34 0 4 C0 2.68 0 1.36 0 0 Z " fill="#78705E" transform="translate(79,66)"/>
<path d="M0 0 C0.33 0 0.66 0 1 0 C1.1875 2.375 1.1875 2.375 1 5 C0.01 5.66 -0.98 6.32 -2 7 C-2.66 6.67 -3.32 6.34 -4 6 C-2.84826645 3.53199953 -1.95216435 1.95216435 0 0 Z " fill="#DACFAE" transform="translate(64,93)"/>
<path d="M0 0 C2 0.3125 2 0.3125 4 1 C4.33 1.66 4.66 2.32 5 3 C3.35 3.66 1.7 4.32 0 5 C-0.5625 3.0625 -0.5625 3.0625 -1 1 C-0.67 0.67 -0.34 0.34 0 0 Z " fill="#696860" transform="translate(113,74)"/>
<path d="M0 0 C0.66 0 1.32 0 2 0 C2 0.66 2 1.32 2 2 C2.66 2 3.32 2 4 2 C4 2.66 4 3.32 4 4 C3.34 4 2.68 4 2 4 C2 4.66 2 5.32 2 6 C0.68 5.34 -0.64 4.68 -2 4 C-2 2 -2 2 0 0 Z " fill="#8E8A7E" transform="translate(41,41)"/>
<path d="M0 0 C2.125 0.9375 2.125 0.9375 4 2 C4 2.66 4 3.32 4 4 C2.68 4.33 1.36 4.66 0 5 C0 4.34 0 3.68 0 3 C-0.66 3 -1.32 3 -2 3 C-2 2.34 -2 1.68 -2 1 C-1.34 0.67 -0.68 0.34 0 0 Z " fill="#898476" transform="translate(34,94)"/>
<path d="M0 0 C1.32 0.66 2.64 1.32 4 2 C2.68 3.32 1.36 4.64 0 6 C-0.99 5.67 -1.98 5.34 -3 5 C-2.01 4.67 -1.02 4.34 0 4 C-0.33 3.01 -0.66 2.02 -1 1 C-0.67 0.67 -0.34 0.34 0 0 Z " fill="#7B6F55" transform="translate(93,54)"/>
<path d="M0 0 C1.32 0 2.64 0 4 0 C4 1.65 4 3.3 4 5 C2.35 4.67 0.7 4.34 -1 4 C-0.67 2.68 -0.34 1.36 0 0 Z " fill="#948F81" transform="translate(64,117)"/>
<path d="M0 0 C0.66 1.32 1.32 2.64 2 4 C0.35 5.65 -1.3 7.3 -3 9 C-3.66 8.67 -4.32 8.34 -5 8 C-4.360625 7.236875 -3.72125 6.47375 -3.0625 5.6875 C-0.85767219 3.11753287 -0.85767219 3.11753287 0 0 Z " fill="#DDDCD9" transform="translate(117,97)"/>
<path d="M0 0 C0.99 0 1.98 0 3 0 C5.125 6.75 5.125 6.75 4 9 C2.68 6.03 1.36 3.06 0 0 Z " fill="#EDE0BD" transform="translate(87,90)"/>
<path d="M0 0 C0.66 1.32 1.32 2.64 2 4 C2.66 4 3.32 4 4 4 C4.33 3.34 4.66 2.68 5 2 C5 2.99 5 3.98 5 5 C-0.75 4.25 -0.75 4.25 -3 2 C-2.01 1.34 -1.02 0.68 0 0 Z " fill="#B5B0A2" transform="translate(116,56)"/>
<path d="M0 0 C0.99 0.33 1.98 0.66 3 1 C2.67 2.32 2.34 3.64 2 5 C1.01 5 0.02 5 -1 5 C-1.33 3.68 -1.66 2.36 -2 1 C-1.34 0.67 -0.68 0.34 0 0 Z " fill="#A69B8E" transform="translate(73,108)"/>
<path d="M0 0 C0.33 0.99 0.66 1.98 1 3 C2.32 2.67 3.64 2.34 5 2 C5.66 3.32 6.32 4.64 7 6 C4.69 5.34 2.38 4.68 0 4 C0 2.68 0 1.36 0 0 Z " fill="#070200" transform="translate(85,71)"/>
<path d="M0 0 C0.99 0 1.98 0 3 0 C3.66 2.31 4.32 4.62 5 7 C4.01 7 3.02 7 2 7 C2 5.02 2 3.04 2 1 C1.34 0.67 0.68 0.34 0 0 Z " fill="#2C2417" transform="translate(68,46)"/>
</svg>
