<?xml version="1.0" encoding="UTF-8"?>
<svg version="1.1" xmlns="http://www.w3.org/2000/svg" width="256" height="256">
<path d="M0 0 C0.72928711 0.20898926 1.45857422 0.41797852 2.20996094 0.63330078 C23.09131849 6.85298225 40.20757702 18.1495812 56 33 C56.59039062 33.5259375 57.18078125 34.051875 57.7890625 34.59375 C72.88646754 48.6178798 83.82296404 69.23667738 89 89 C89.19319824 89.69512695 89.38639648 90.39025391 89.58544922 91.10644531 C95.48315015 112.93516044 95.26252076 137.28033028 89 159 C88.68651611 160.09393066 88.68651611 160.09393066 88.36669922 161.20996094 C83.39326637 177.9072838 75.20942972 192.71540687 64 206 C63.2471875 206.89332031 62.494375 207.78664062 61.71875 208.70703125 C42.10982168 231.18134874 15.44074577 246.14302417 -14 251 C-14.99644531 251.18304688 -15.99289063 251.36609375 -17.01953125 251.5546875 C-32.83380824 253.73431687 -50.59604387 253.2088243 -66 249 C-67.90265625 248.50693359 -67.90265625 248.50693359 -69.84375 248.00390625 C-99.85075073 239.73250803 -128.26171926 220.23236796 -144 193 C-144.41330566 192.28585938 -144.82661133 191.57171875 -145.25244141 190.8359375 C-161.44369714 162.38975042 -168.96441633 127.4554858 -160.59082031 95.12988281 C-153.88873619 70.96914648 -143.36661349 51.19045663 -126 33 C-125.47535156 32.4121875 -124.95070312 31.824375 -124.41015625 31.21875 C-110.40633564 16.11030232 -89.75405704 5.17460883 -70 0 C-69.30487305 -0.19319824 -68.60974609 -0.38639648 -67.89355469 -0.58544922 C-46.06483956 -6.48315015 -21.71966972 -6.26252076 0 0 Z M-46.8125 68.6875 C-48.5729117 72.11567016 -48.76385881 75.28778894 -48 79 C-46.25607931 82.27254253 -43.87969597 84.43797202 -40.75 86.4375 C-36.06091132 87.39663178 -31.32803164 87.38423503 -27.12109375 84.8828125 C-24.96458952 83.12643074 -23.25182529 81.50365058 -22 79 C-21.62406848 74.01890741 -21.8234839 70.94326136 -25 67 C-28.88058088 63.58979256 -32.67311188 63.54893531 -37.62890625 63.7109375 C-41.72043002 64.20973941 -43.88427047 65.96121734 -46.8125 68.6875 Z M-46 106 C-48.30341457 109.33810315 -48.25844208 112.36176186 -48.2746582 116.34155273 C-48.28419022 117.62646103 -48.29372223 118.91136932 -48.30354309 120.23521423 C-48.30328165 121.63467435 -48.30234456 123.03413448 -48.30078125 124.43359375 C-48.30466995 125.87321598 -48.30900498 127.31283706 -48.31376648 128.75245667 C-48.3212218 131.76770754 -48.32094245 134.7828413 -48.31567383 137.7980957 C-48.30988001 141.65616664 -48.3268109 145.51375737 -48.3500185 149.37174892 C-48.36477258 152.34437345 -48.36562529 155.31688277 -48.36250877 158.28953743 C-48.36302115 159.71165989 -48.36824315 161.13378893 -48.37832069 162.55587578 C-48.3906988 164.54689729 -48.38194269 166.53801602 -48.37231445 168.52905273 C-48.37294388 169.66060287 -48.3735733 170.79215302 -48.3742218 171.95799255 C-47.9545663 175.36932554 -47.01486305 177.24325136 -45 180 C-40.39187038 183.26326776 -34.37579139 182.60289249 -29 182 C-25.80263934 180.7282543 -23.57604523 179.15209045 -22 176 C-21.88787418 173.93343213 -21.84066812 171.86323318 -21.82299805 169.79370117 C-21.81016281 168.48862106 -21.79732758 167.18354095 -21.78410339 165.83891296 C-21.77593587 164.40693541 -21.76849216 162.97495357 -21.76171875 161.54296875 C-21.75764322 160.82289454 -21.7535677 160.10282032 -21.74936867 159.36092567 C-21.72850691 155.5491324 -21.71420609 151.73737513 -21.70483398 147.92553711 C-21.69377339 143.99111161 -21.65937867 140.05725229 -21.61966228 136.12302685 C-21.59349729 133.09551452 -21.58514227 130.06813707 -21.58155251 127.04052162 C-21.57668562 125.5904591 -21.56506854 124.14040265 -21.54651451 122.69045067 C-21.52213203 120.65860011 -21.525507 118.62647424 -21.5300293 116.59448242 C-21.52416306 115.43913498 -21.51829681 114.28378754 -21.51225281 113.09342957 C-22.10669462 109.3233128 -23.33964183 107.68944553 -26 105 C-33.06180803 101.70448959 -39.35085073 102.34948668 -46 106 Z " fill="#FF6247" transform="translate(163,4)"/>
</svg>
